<svg width="1056" height="89" viewBox="0 0 1056 89" fill="none" xmlns="http://www.w3.org/2000/svg">
<path d="M0.572 2.19999H16.816L33.184 32.828L49.552 2.19999H65.796V89H49.552V35.432L37.896 57.876H28.596L16.692 35.06V89H0.572V2.19999ZM100.51 89C96.1289 89 92.0782 87.9253 88.3582 85.776C84.7209 83.544 81.7862 80.568 79.5542 76.848C77.4049 73.128 76.3302 69.0773 76.3302 64.696V49.072C76.3302 44.6907 77.4049 40.64 79.5542 36.92C81.7862 33.2 84.7209 30.2653 88.3582 28.116C92.0782 25.884 96.1289 24.768 100.51 24.768H110.43C114.812 24.768 118.821 25.8427 122.458 27.992C126.178 30.0587 129.113 32.952 131.262 36.672C133.412 40.3093 134.528 44.3187 134.61 48.7V58.868H92.4502V64.696C92.4502 66.8453 93.2355 68.7053 94.8062 70.276C96.4595 71.8467 98.3609 72.632 100.51 72.632H110.43C112.662 72.632 114.564 71.8467 116.134 70.276C117.705 68.7053 118.49 66.8453 118.49 64.696V63.456H134.61V64.696C134.61 69.0773 133.536 73.128 131.386 76.848C129.237 80.568 126.302 83.544 122.582 85.776C118.862 87.9253 114.812 89 110.43 89H100.51ZM118.49 50.808V49.072C118.49 46.7573 117.705 44.856 116.134 43.368C114.646 41.7973 112.745 41.012 110.43 41.012H100.51C98.2782 41.012 96.3769 41.7973 94.8062 43.368C93.2355 44.9387 92.4502 46.84 92.4502 49.072V50.808H118.49ZM167.959 89C163.578 89 159.527 87.9253 155.807 85.776C152.17 83.544 149.235 80.6093 147.003 76.972C144.854 73.252 143.779 69.2013 143.779 64.82V49.072C143.779 44.6907 144.854 40.64 147.003 36.92C149.235 33.2 152.17 30.2653 155.807 28.116C159.527 25.884 163.578 24.768 167.959 24.768H176.143L185.939 31.34V24.768H202.059V89H185.939V82.428L176.143 89H167.959ZM159.899 64.82C159.899 66.9693 160.685 68.8293 162.255 70.4C163.909 71.9707 165.81 72.756 167.959 72.756H171.183L185.939 62.836V50.932L171.183 41.012H167.959C165.81 41.012 163.909 41.7973 162.255 43.368C160.685 44.9387 159.899 46.84 159.899 49.072V64.82ZM253.088 89C248.624 89 244.532 87.9253 240.812 85.776C237.092 83.6267 234.158 80.692 232.008 76.972C229.859 73.252 228.784 69.2013 228.784 64.82V41.012H209.564V24.768H228.784V8.648H245.028V24.768H267.968V41.012H245.028V64.82C245.028 67.052 245.772 68.9533 247.26 70.524C248.831 72.012 250.774 72.756 253.088 72.756H267.968V89H253.088ZM324.315 89C319.933 89 315.883 87.9253 312.163 85.776C308.525 83.544 305.591 80.568 303.359 76.848C301.209 73.128 300.135 69.0773 300.135 64.696V26.38C300.135 21.9987 301.209 17.9893 303.359 14.352C305.591 10.632 308.525 7.69733 312.163 5.548C315.883 3.31599 319.933 2.19999 324.315 2.19999H334.235C338.699 2.19999 342.749 3.27466 346.387 5.424C350.107 7.57333 353.041 10.508 355.191 14.228C357.34 17.948 358.415 21.9987 358.415 26.38V33.2H342.295V26.38C342.295 24.148 341.509 22.288 339.939 20.8C338.451 19.2293 336.549 18.444 334.235 18.444H324.315C322.083 18.444 320.181 19.2293 318.611 20.8C317.04 22.3707 316.255 24.2307 316.255 26.38V64.696C316.255 66.8453 317.04 68.7053 318.611 70.276C320.264 71.8467 322.165 72.632 324.315 72.632H334.235C336.467 72.632 338.368 71.8467 339.939 70.276C341.509 68.7053 342.295 66.8453 342.295 64.696V57.876H358.415V64.696C358.415 69.0773 357.34 73.128 355.191 76.848C353.041 80.568 350.107 83.544 346.387 85.776C342.667 87.9253 338.616 89 334.235 89H324.315ZM385.549 0.959995V31.34L395.345 24.768H403.529C407.911 24.768 411.92 25.884 415.557 28.116C419.277 30.2653 422.212 33.2 424.361 36.92C426.593 40.64 427.709 44.6907 427.709 49.072V89H411.589V49.072C411.589 46.84 410.763 44.9387 409.109 43.368C407.539 41.7973 405.679 41.012 403.529 41.012H400.305L385.549 50.932V89H369.429V0.959995H385.549ZM462.702 89C458.32 89 454.27 87.9253 450.55 85.776C446.912 83.544 443.978 80.568 441.746 76.848C439.596 73.128 438.522 69.0773 438.522 64.696V49.072C438.522 44.6907 439.596 40.64 441.746 36.92C443.978 33.2 446.912 30.2653 450.55 28.116C454.27 25.884 458.32 24.768 462.702 24.768H472.622C477.003 24.768 481.012 25.8427 484.65 27.992C488.37 30.0587 491.304 32.952 493.454 36.672C495.603 40.3093 496.719 44.3187 496.802 48.7V58.868H454.642V64.696C454.642 66.8453 455.427 68.7053 456.998 70.276C458.651 71.8467 460.552 72.632 462.702 72.632H472.622C474.854 72.632 476.755 71.8467 478.326 70.276C479.896 68.7053 480.682 66.8453 480.682 64.696V63.456H496.802V64.696C496.802 69.0773 495.727 73.128 493.578 76.848C491.428 80.568 488.494 83.544 484.774 85.776C481.054 87.9253 477.003 89 472.622 89H462.702ZM480.682 50.808V49.072C480.682 46.7573 479.896 44.856 478.326 43.368C476.838 41.7973 474.936 41.012 472.622 41.012H462.702C460.47 41.012 458.568 41.7973 456.998 43.368C455.427 44.9387 454.642 46.84 454.642 49.072V50.808H480.682ZM530.151 89C525.769 89 521.719 87.9253 517.999 85.776C514.361 83.544 511.427 80.568 509.195 76.848C507.045 73.128 505.971 69.0773 505.971 64.696V49.072C505.971 44.6907 507.045 40.64 509.195 36.92C511.427 33.2 514.361 30.2653 517.999 28.116C521.719 25.884 525.769 24.768 530.151 24.768H540.071C544.452 24.768 548.461 25.8427 552.099 27.992C555.819 30.0587 558.753 32.952 560.903 36.672C563.052 40.3093 564.168 44.3187 564.251 48.7V58.868H522.091V64.696C522.091 66.8453 522.876 68.7053 524.447 70.276C526.1 71.8467 528.001 72.632 530.151 72.632H540.071C542.303 72.632 544.204 71.8467 545.775 70.276C547.345 68.7053 548.131 66.8453 548.131 64.696V63.456H564.251V64.696C564.251 69.0773 563.176 73.128 561.027 76.848C558.877 80.568 555.943 83.544 552.223 85.776C548.503 87.9253 544.452 89 540.071 89H530.151ZM548.131 50.808V49.072C548.131 46.7573 547.345 44.856 545.775 43.368C544.287 41.7973 542.385 41.012 540.071 41.012H530.151C527.919 41.012 526.017 41.7973 524.447 43.368C522.876 44.9387 522.091 46.84 522.091 49.072V50.808H548.131ZM595.368 89C591.069 89 587.143 88.132 583.588 86.396C580.116 84.66 577.388 82.2627 575.404 79.204C573.42 76.0627 572.428 72.5907 572.428 68.788V67.176H588.672V68.788C588.672 70.1107 589.251 71.3093 590.408 72.384C591.648 73.4587 593.301 73.996 595.368 73.996H608.512C610.331 73.996 611.736 73.5827 612.728 72.756C613.803 71.8467 614.34 70.6893 614.34 69.284C614.34 67.3 613.265 65.9773 611.116 65.316C608.967 64.6547 605.495 64.1173 600.7 63.704C595.079 63.208 590.449 62.5053 586.812 61.596C583.175 60.6867 579.992 58.8267 577.264 56.016C574.619 53.2053 573.296 49.0307 573.296 43.492C573.296 37.9533 575.321 33.448 579.372 29.976C583.423 26.504 588.672 24.768 595.12 24.768H606.652C610.703 24.768 614.381 25.6773 617.688 27.496C620.995 29.3147 623.599 31.7947 625.5 34.936C627.484 37.9947 628.476 41.4253 628.476 45.228V46.344H612.232V45.228C612.232 43.9053 611.695 42.7067 610.62 41.632C609.628 40.4747 608.305 39.896 606.652 39.896H595.12C593.136 39.896 591.689 40.3507 590.78 41.26C589.953 42.0867 589.54 43.12 589.54 44.36C589.54 46.0133 590.532 47.1293 592.516 47.708C594.583 48.204 597.765 48.6173 602.064 48.948C607.768 49.3613 612.521 50.0227 616.324 50.932C620.127 51.8413 623.433 53.784 626.244 56.76C629.137 59.6533 630.584 63.952 630.584 69.656C630.584 75.4427 628.559 80.1133 624.508 83.668C620.457 87.2227 615.125 89 608.512 89H595.368ZM662.991 89C658.609 89 654.559 87.9253 650.839 85.776C647.201 83.544 644.267 80.568 642.035 76.848C639.885 73.128 638.811 69.0773 638.811 64.696V49.072C638.811 44.6907 639.885 40.64 642.035 36.92C644.267 33.2 647.201 30.2653 650.839 28.116C654.559 25.884 658.609 24.768 662.991 24.768H672.911C677.292 24.768 681.301 25.8427 684.939 27.992C688.659 30.0587 691.593 32.952 693.743 36.672C695.892 40.3093 697.008 44.3187 697.091 48.7V58.868H654.931V64.696C654.931 66.8453 655.716 68.7053 657.287 70.276C658.94 71.8467 660.841 72.632 662.991 72.632H672.911C675.143 72.632 677.044 71.8467 678.615 70.276C680.185 68.7053 680.971 66.8453 680.971 64.696V63.456H697.091V64.696C697.091 69.0773 696.016 73.128 693.867 76.848C691.717 80.568 688.783 83.544 685.063 85.776C681.343 87.9253 677.292 89 672.911 89H662.991ZM680.971 50.808V49.072C680.971 46.7573 680.185 44.856 678.615 43.368C677.127 41.7973 675.225 41.012 672.911 41.012H662.991C660.759 41.012 658.857 41.7973 657.287 43.368C655.716 44.9387 654.931 46.84 654.931 49.072V50.808H680.971ZM730.767 2.19999H761.395C765.859 2.19999 769.951 3.27466 773.671 5.424C777.391 7.57333 780.326 10.508 782.475 14.228C784.625 17.948 785.699 21.9987 785.699 26.38V28.488C785.699 33.944 784.046 38.8627 780.739 43.244C783.054 45.5587 784.873 48.204 786.195 51.18C787.518 54.156 788.179 57.3387 788.179 60.728V64.82C788.179 69.2013 787.105 73.252 784.955 76.972C782.806 80.692 779.871 83.6267 776.151 85.776C772.431 87.9253 768.339 89 763.875 89H730.767V2.19999ZM763.875 72.756C766.19 72.756 768.091 72.012 769.579 70.524C771.15 68.9533 771.935 67.052 771.935 64.82V60.728C771.935 58.496 771.15 56.636 769.579 55.148C768.091 53.5773 766.19 52.792 763.875 52.792H746.887V72.756H763.875ZM761.395 36.548C763.71 36.548 765.611 35.804 767.099 34.316C768.67 32.7453 769.455 30.8027 769.455 28.488V26.38C769.455 24.148 768.67 22.288 767.099 20.8C765.611 19.2293 763.71 18.444 761.395 18.444H746.887V36.548H761.395ZM798.949 24.768H815.069V32.58L826.105 24.768H831.313C835.446 24.768 839.29 25.884 842.845 28.116C846.4 30.2653 849.21 33.2 851.277 36.92C853.426 40.64 854.501 44.6907 854.501 49.072V53.04H838.257V49.072C838.257 46.84 837.596 44.9387 836.273 43.368C834.95 41.7973 833.297 41.012 831.313 41.012H829.825L815.069 51.18V89H798.949V24.768ZM884.229 89C879.848 89 875.797 87.9253 872.077 85.776C868.44 83.544 865.505 80.568 863.273 76.848C861.124 73.128 860.049 69.0773 860.049 64.696V49.072C860.049 44.6907 861.124 40.64 863.273 36.92C865.505 33.2 868.44 30.2653 872.077 28.116C875.797 25.884 879.848 24.768 884.229 24.768H894.149C898.53 24.768 902.54 25.8427 906.177 27.992C909.897 30.0587 912.832 32.952 914.981 36.672C917.13 40.3093 918.246 44.3187 918.329 48.7V58.868H876.169V64.696C876.169 66.8453 876.954 68.7053 878.525 70.276C880.178 71.8467 882.08 72.632 884.229 72.632H894.149C896.381 72.632 898.282 71.8467 899.853 70.276C901.424 68.7053 902.209 66.8453 902.209 64.696V63.456H918.329V64.696C918.329 69.0773 917.254 73.128 915.105 76.848C912.956 80.568 910.021 83.544 906.301 85.776C902.581 87.9253 898.53 89 894.149 89H884.229ZM902.209 50.808V49.072C902.209 46.7573 901.424 44.856 899.853 43.368C898.365 41.7973 896.464 41.012 894.149 41.012H884.229C881.997 41.012 880.096 41.7973 878.525 43.368C876.954 44.9387 876.169 46.84 876.169 49.072V50.808H902.209ZM951.678 89C947.297 89 943.246 87.9253 939.526 85.776C935.889 83.544 932.954 80.6093 930.722 76.972C928.573 73.252 927.498 69.2013 927.498 64.82V49.072C927.498 44.6907 928.573 40.64 930.722 36.92C932.954 33.2 935.889 30.2653 939.526 28.116C943.246 25.884 947.297 24.768 951.678 24.768H959.862L969.658 31.34V24.768H985.778V89H969.658V82.428L959.862 89H951.678ZM943.618 64.82C943.618 66.9693 944.403 68.8293 945.974 70.4C947.627 71.9707 949.529 72.756 951.678 72.756H954.902L969.658 62.836V50.932L954.902 41.012H951.678C949.529 41.012 947.627 41.7973 945.974 43.368C944.403 44.9387 943.618 46.84 943.618 49.072V64.82ZM1021.31 89C1016.93 89 1012.88 87.9253 1009.16 85.776C1005.52 83.544 1002.58 80.6093 1000.35 76.972C998.202 73.252 997.127 69.2013 997.127 64.82V49.072C997.127 44.6907 998.202 40.64 1000.35 36.92C1002.58 33.2 1005.52 30.2653 1009.16 28.116C1012.88 25.884 1016.93 24.768 1021.31 24.768H1029.49L1039.29 31.34V0.959995H1055.41V89H1039.29V82.428L1029.49 89H1021.31ZM1013.25 64.82C1013.25 66.9693 1014.03 68.8293 1015.6 70.4C1017.26 71.9707 1019.16 72.756 1021.31 72.756H1024.53L1039.29 62.836V50.932L1024.53 41.012H1021.31C1019.16 41.012 1017.26 41.7973 1015.6 43.368C1014.03 44.9387 1013.25 46.84 1013.25 49.072V64.82Z" fill="black"/>
</svg>
