<svg width="734" height="734" viewBox="0 0 734 734" fill="none" xmlns="http://www.w3.org/2000/svg">
<mask id="mask0_16_844" style="mask-type:alpha" maskUnits="userSpaceOnUse" x="0" y="0" width="734" height="734">
<rect width="734" height="734" fill="#D9D9D9"/>
</mask>
<g mask="url(#mask0_16_844)">
</g>
<g clip-path="url(#clip0_16_844)">
<path d="M81.0792 176.341H55.115V150.308H106.735C108.87 157.319 111.041 164.473 113.199 171.627C122.226 201.427 131.276 231.214 140.196 261.049C140.872 263.288 141.809 263.927 144.062 263.868C149.981 263.702 155.912 263.809 162.163 263.809C163.242 260.469 164.321 257.141 165.377 253.801C176.064 220.081 186.751 186.361 197.426 152.641C197.877 151.22 198.102 150.012 200.225 150.024C216.428 150.13 232.642 150.083 248.856 150.095C249.331 150.095 249.793 150.201 250.41 150.272V176.329C249.07 176.329 247.907 176.329 246.757 176.329C239.142 176.329 231.539 176.353 223.924 176.317C222.382 176.317 221.279 176.4 221.291 178.461C221.35 206.591 221.35 234.708 221.374 262.838C221.374 263.015 221.492 263.205 221.658 263.69H250.374V289.854H183.845V263.844H214.423V260.398C214.423 233.559 214.376 206.709 214.482 179.87C214.482 177.004 213.688 176.08 210.841 176.282C207.401 176.519 203.902 176.578 200.474 176.258C197.687 176.009 197.011 177.431 196.335 179.622C185.292 215.497 174.178 251.361 163.183 287.248C162.507 289.439 161.629 290.245 159.34 290.162C154.5 289.996 149.649 289.996 144.81 290.162C142.366 290.245 141.227 289.581 140.48 287.059C129.888 251.349 119.13 215.699 108.538 179.989C107.684 177.123 106.545 176.057 103.485 176.246C98.5745 176.554 93.6402 176.329 88.5162 176.329V263.773H118.489V289.901H55.115V263.856H81.0792V176.341Z" fill="black"/>
<path d="M294.664 263.809H297.618C326.286 263.809 354.943 263.785 383.612 263.856C385.759 263.856 386.992 263.169 388.178 261.452C391.737 256.288 395.485 251.266 399.624 245.545V289.854H262.9V263.951H287.251V176.211H262.9V150.023H388.309C388.38 150.853 388.51 151.693 388.51 152.534C388.522 164.378 388.546 176.222 388.475 188.066C388.475 189.014 387.905 189.95 387.609 190.885C386.885 190.234 385.925 189.725 385.462 188.919C383.351 185.248 381.441 181.446 379.306 177.786C378.855 177.016 377.728 176.175 376.91 176.163C349.736 176.092 322.55 176.128 295.376 176.163C295.198 176.163 295.02 176.293 294.652 176.436V208.592H331.327V230.16H294.664V263.809Z" fill="black"/>
<path d="M678.244 150V192.046C678.067 192.153 677.901 192.248 677.723 192.354C677.082 191.253 676.43 190.163 675.801 189.062C673.678 185.283 671.638 181.446 669.408 177.727C668.957 176.981 667.807 176.187 666.976 176.175C646.528 176.104 626.067 176.14 605.618 176.152C605.44 176.152 605.251 176.258 604.847 176.377V263.217H633.599V289.558H569.394V263.347H597.446V176.27C596.438 176.211 595.489 176.116 594.528 176.116C577.827 176.116 561.127 176.163 544.438 176.045C542.22 176.033 541.081 176.732 540.168 178.674C538.531 182.145 536.681 185.52 534.771 188.86C534.332 189.63 533.348 190.08 532.019 191.182V150H678.233H678.244Z" fill="black"/>
<path d="M431.4 263.868C435.682 251.136 439.893 238.64 444.08 226.145C452.253 201.77 460.437 177.395 468.514 152.984C469.25 150.746 470.21 149.929 472.642 150.012C478.964 150.213 485.286 150.189 491.608 150.023C493.945 149.964 495 150.568 495.748 152.937C507.146 188.801 518.687 224.605 530.074 260.469C530.904 263.086 531.984 263.998 534.759 263.892C540.761 263.643 546.787 263.821 553.026 263.821V289.96H497.135V263.939H524.914C522.72 256.691 520.656 249.833 518.569 242.975C517.05 238.001 513.658 235.513 508.392 235.513C489.022 235.513 469.665 235.585 450.295 235.431C447.437 235.407 446.417 236.378 445.646 238.948C443.214 247.144 440.498 255.257 437.77 263.773H466.023V289.925C465.051 289.984 464.114 290.102 463.165 290.102C446.464 290.102 429.764 290.067 413.075 290.162C410.631 290.174 409.849 289.51 409.908 287.023C410.062 280.225 409.955 273.414 409.967 266.604C409.967 265.739 410.074 264.875 410.145 263.868H431.4ZM508.902 213.957C505.248 202.409 501.738 191.158 498.049 179.953C497.823 179.254 496.329 178.567 495.404 178.544C488.69 178.425 481.977 178.461 475.263 178.496C472.417 178.508 468.835 177.644 466.949 179.029C465.051 180.415 464.79 184.087 463.912 186.787C461.03 195.765 458.183 204.755 455.265 213.969H508.902V213.957Z" fill="black"/>
<path d="M214.15 324.379C211.992 327.08 210.544 327.269 208.22 326.002C206.073 324.829 203.333 324.213 200.878 324.261C190.855 324.438 182.528 328.43 176.171 336.27C175.376 337.254 174.676 338.367 174.119 339.504C171.284 345.248 173.051 349.82 179.1 351.964C187.7 354.996 196.299 353.93 204.661 351.135C215.419 347.534 224.683 341.387 232.511 333.167C235.88 329.626 238.727 325.729 239.059 320.577C239.332 316.455 237.754 313.305 234.208 311.126C228.823 307.809 222.821 306.732 216.653 306.495C201.186 305.902 186.419 309.171 172.233 315.105C140.563 328.371 113.792 348.588 89.9988 373.034C83.0007 380.224 77.1057 388.183 72.0646 396.853C63.2399 412.037 67.1778 422.945 83.1075 430.75C94.7433 436.459 107.352 437.193 119.925 435.227C145.901 431.165 166.065 417.153 182.493 397.267C186.051 392.968 188.388 387.958 189.408 382.391C190.701 375.344 188.056 369.907 181.271 367.586C177.143 366.177 172.612 365.276 168.259 365.276C149.53 365.276 134.407 373.39 122 386.975C118.905 390.362 116.734 394.342 115.892 398.949C115.026 403.71 116.71 407.204 121.052 409.419C129.248 413.588 141.299 411.598 147.561 405.037C149.269 403.248 150.799 401.235 152.745 399.766C153.777 398.996 155.686 398.712 156.932 399.079C158.841 399.636 159.09 401.259 157.62 402.763C147.905 412.641 136.459 417.39 122.51 414.169C117.932 413.114 113.804 411.113 110.602 407.429C105.442 401.519 104.185 395.052 108.253 388.372C110.803 384.179 114.231 380.153 118.146 377.215C135.653 364.068 155.485 359.378 177.12 362.694C182.611 363.535 187.771 365.537 192.278 368.995C200.795 375.533 203.345 383.552 200.012 393.844C197.141 402.727 191.258 409.455 184.118 415.116C160.751 433.64 134.182 441.955 104.351 439.917C91.0426 439.005 78.6951 435.618 68.0437 427.244C60.6779 421.464 55.6487 414.251 54.7591 404.717C54.1068 397.646 55.9215 391.025 59.0766 384.748C63.1569 376.647 68.6605 369.54 75.0537 363.192C106.035 332.469 142.983 312.772 185.802 304.327C199.62 301.603 213.688 300.62 227.553 304.221C232.44 305.488 237.303 307.572 241.585 310.237C249.77 315.318 251.881 324.474 247.243 332.966C245.749 335.69 243.851 338.391 241.55 340.463C223.544 356.618 202.633 361.747 179.136 356.086C176.408 355.434 173.751 354.096 171.355 352.603C162.684 347.214 161.866 337.633 169.469 330.763C176.218 324.675 184.355 321.394 193.322 320.696C198.28 320.305 203.345 320.79 208.303 321.383C210.224 321.608 211.98 323.218 214.115 324.367L214.15 324.379Z" fill="black"/>
<path d="M189.775 432.953C195.718 426.629 201.743 420.375 207.579 413.956C227.72 391.831 247.599 369.458 267.953 347.534C290.121 323.657 317.129 308.426 349.866 304.73C359.521 303.641 369.366 303.972 379.116 304.138C384.134 304.221 386.529 307.833 384.81 311.481C384.442 312.251 383.861 312.997 383.208 313.554C380.184 316.124 373.411 317.036 370.434 314.525C360.553 306.187 349.807 308.236 339.025 311.517C325.112 315.757 313.168 323.716 303.216 333.961C284.938 352.805 267.419 372.395 249.592 391.677C249.402 391.878 249.307 392.163 248.797 393.039C254.858 388.598 260.172 384.286 265.901 380.603C274.429 375.119 283.194 369.979 291.972 364.898C293.881 363.796 296.23 363.263 298.436 362.896C308.364 361.274 316.513 370.216 313.619 379.845C312.634 383.138 310.843 386.525 308.506 389.012C302.22 395.68 295.447 401.887 288.84 408.247C283.23 413.66 277.513 418.966 271.997 424.473C271.001 425.468 270.693 427.162 270.064 428.536C271.654 429.14 273.243 430.265 274.82 430.241C281.332 430.182 286.35 426.546 291.13 422.661C295.649 418.989 300.002 415.105 304.462 411.35C305.28 410.663 306.253 409.716 307.166 409.704C308.388 409.68 309.918 410.154 310.76 410.983C311.27 411.48 311.08 413.269 310.582 414.098C309.787 415.412 308.661 416.715 307.356 417.473C298.697 422.554 290.038 427.659 281.178 432.385C278.758 433.676 275.674 434.209 272.887 434.197C263.552 434.15 257.764 425.598 260.67 416.04C261.619 412.913 263.161 409.644 265.331 407.264C270.491 401.591 276.113 396.308 281.712 391.061C286.824 386.276 292.256 381.823 297.369 377.026C299.278 375.226 300.915 373.023 302.255 370.761C303.726 368.273 302.576 366.71 299.658 367.148C297.535 367.468 295.222 367.8 293.431 368.854C285.365 373.591 277.027 378.033 269.554 383.611C249.971 398.203 231.622 414.275 214.328 431.544C212.383 433.486 211.114 434.15 208.196 432.267C204.377 429.803 199.81 431.343 195.611 432.728C193.832 433.309 191.946 433.534 190.096 433.925C189.989 433.605 189.894 433.297 189.787 432.977L189.775 432.953Z" fill="black"/>
<path d="M418.365 540.343V583.657C417.072 583.728 415.839 583.858 414.605 583.858C392.46 583.87 370.327 583.74 348.182 583.941C341.552 584 335.894 583.1 333.201 575.686C332.264 577.213 331.671 578.303 330.96 579.298C329.24 581.726 327.034 583.597 323.926 583.657C317.236 583.763 310.546 583.692 303.691 583.692V556.546C309.764 556.759 311.602 552.341 312.717 547.769C314.152 541.847 314.093 535.819 311.756 530.027C310.309 526.438 308.198 523.584 303.655 523.821V512.593C309.704 512.747 311.59 508.352 312.705 503.769C314.093 498.072 314.188 492.197 312.183 486.559C310.807 482.686 308.779 479.323 303.703 479.678V452.851C310.724 452.851 317.628 452.65 324.507 452.922C328.67 453.088 331.138 456.061 332.81 459.65C334.186 457.98 335.218 456.002 336.855 454.948C338.669 453.775 341.018 452.828 343.141 452.816C367.848 452.674 392.555 452.721 417.262 452.733C417.547 452.733 417.831 452.84 418.329 452.922V495.632H380.053C379.211 492.126 378.654 488.62 377.491 485.351C376.115 481.467 373.316 479.275 368.833 479.737C366.579 479.962 364.278 479.891 362.024 479.749C358.857 479.548 356.687 480.981 355.287 483.646C351.373 491.119 351.586 498.617 355.489 506.007C356.841 508.554 359.023 509.703 362.072 509.62C368.275 509.454 374.49 509.572 380.895 509.572V526.308H365.452C357.197 526.308 354.208 528.629 352.95 536.719C352.144 541.918 352.239 547.142 354.967 551.986C356.556 554.816 358.703 556.463 362.107 556.285C364.574 556.155 367.053 556.167 369.521 556.285C373.138 556.463 375.795 554.864 377.017 551.63C378.357 548.101 379.128 544.358 380.255 540.343H418.377H418.365ZM414.166 544.323C405.045 544.323 396.268 544.417 387.478 544.263C384.703 544.216 383.588 544.844 382.841 547.84C380.528 557.102 376.436 561.129 367.184 560.454C365.417 560.324 363.625 560.395 361.846 560.454C356.959 560.584 353.52 558.287 351.349 554.082C347.293 546.218 347.399 538.176 350.685 530.086C351.017 529.269 351.432 528.475 351.895 527.717C354.184 523.975 357.47 522.02 361.953 522.103C366.84 522.186 371.739 522.127 376.708 522.127V513.765C371.525 513.765 366.508 513.67 361.502 513.789C357.292 513.895 354.125 512.048 352.168 508.577C346.996 499.375 346.723 489.982 352.168 480.768C354.184 477.345 357.28 475.391 361.502 475.58C364.266 475.698 367.042 475.71 369.805 475.58C375.012 475.343 378.511 477.901 380.634 482.331C382.034 485.233 382.888 488.383 384.003 491.475H414.107V456.902C406.777 456.902 399.672 456.902 392.567 456.902C376.661 456.902 360.755 456.902 344.849 456.902C339.998 456.902 338.29 458.004 336.617 462.54C335.811 464.719 335.408 467.052 334.826 469.279H331.351C330.497 466.436 329.845 463.878 328.943 461.391C328.125 459.152 326.618 457.281 324.068 457.198C318.683 457.044 313.298 457.151 307.724 457.151C307.724 463.002 307.676 468.71 307.783 474.419C307.795 475.071 308.601 475.758 309.135 476.35C311.14 478.577 313.619 480.519 315.125 483.03C318.304 488.36 318.078 494.448 317.556 500.334C316.987 506.777 315.066 512.735 308.649 516.051C307.083 516.856 307.546 519.344 308.921 520.587C311.068 522.518 313.346 524.519 314.828 526.947C318.043 532.23 318.055 538.27 317.592 544.204C317.165 549.83 315.718 555.42 310.724 558.654C307.961 560.454 307.605 562.349 307.676 565.085C307.795 569.87 307.712 574.667 307.712 579.582C313.109 579.582 318.066 579.867 322.965 579.428C324.697 579.274 326.903 577.746 327.781 576.219C329.453 573.305 330.319 569.929 331.636 566.459C331.778 566.459 332.359 566.364 332.94 566.376C333.605 566.388 334.269 566.495 334.992 566.566C335.206 567.75 335.384 568.816 335.574 569.882C336.902 577.19 339.784 579.641 347.103 579.641C368.145 579.641 389.198 579.641 410.24 579.641H414.166V544.299V544.323Z" fill="black"/>
<path d="M279.399 516.75C287.417 521.428 289.932 529.731 290.608 539.052C290.869 542.759 291.165 546.514 292.055 550.091C293.039 554.082 295.756 556.534 300.227 556.38C300.714 556.368 301.212 556.487 301.686 556.593C301.864 556.629 302.018 556.783 302.339 556.984V583.538C301.912 583.645 301.544 583.823 301.188 583.823C292.992 583.752 284.772 583.953 276.588 583.503C263.446 582.769 255.57 575.33 253.257 561.378C252.154 554.698 251.952 547.864 251.323 541.101C251.145 539.147 251.134 537.145 250.695 535.239C249.058 528.144 246.686 526.308 239.474 526.308C237.398 526.308 235.323 526.391 233.247 526.284C230.08 526.13 227.945 527.67 226.569 530.311C223.189 536.802 222.939 543.553 225.442 550.351C226.759 553.94 228.894 556.866 233.591 556.439V583.858H222.097C220.413 583.858 218.729 583.752 217.056 583.882C211.505 584.296 207.496 582.07 205.053 577.06C204.887 576.716 204.59 576.444 204.116 575.852C201.589 582.757 196.323 584.273 189.823 583.917C184.995 583.645 180.156 583.858 175.068 583.858V556.475C179.824 556.854 182.006 553.786 183.335 549.949C185.588 543.494 185.517 536.956 183.192 530.536C181.437 525.68 179.919 524.531 174.925 523.596V512.557C179.717 512.83 181.994 509.833 183.276 505.972C185.612 498.925 185.695 491.83 182.742 484.901C181.378 481.692 179.231 479.382 175.068 479.761V452.698C176.835 452.698 178.768 452.698 180.69 452.698C184.248 452.698 187.806 452.698 191.365 452.698C198.778 452.698 200.166 453.444 204.424 459.899C207.081 452.994 212.727 452.579 218.883 452.638C233.709 452.804 248.536 452.698 263.351 452.698C278.165 452.698 286.267 459.247 289.315 473.164C291.521 483.231 292.09 493.642 287.797 503.39C285.697 508.151 282.222 512.297 279.363 516.726L279.399 516.75ZM205.788 566.53C207.01 569.847 207.852 573.009 209.335 575.852C210.106 577.344 211.92 579.168 213.379 579.286C218.646 579.701 223.96 579.452 229.582 579.452C229.582 573.376 229.629 567.478 229.511 561.591C229.499 560.964 228.55 560.336 227.992 559.744C226.142 557.766 223.663 556.096 222.501 553.763C218.207 545.152 218.61 536.399 223.117 527.943C225.169 524.093 228.514 522.032 233.033 522.115C236.094 522.175 239.166 522.198 242.226 522.115C247.16 521.973 250.434 524.366 252.616 528.582C254.751 532.704 255.593 537.062 255.558 541.705C255.475 550.115 256.246 558.429 258.962 566.483C261.334 573.518 266.138 578.019 273.456 578.718C281.486 579.476 289.6 579.286 297.677 579.488C297.819 579.488 297.962 579.251 298.282 578.955C298.282 573.412 298.341 567.691 298.211 561.982C298.199 561.343 297.226 560.348 296.538 560.182C292.968 559.329 290.715 557.043 289.09 553.928C286.943 549.795 286.112 545.389 286.373 540.77C286.67 535.392 285.318 530.394 282.673 525.763C280.656 522.222 277.857 519.77 273.385 520.149C272.733 520.208 272.057 520.031 271.238 519.96C271.286 517.982 270.04 516.004 272.709 514.772C277.904 512.38 281.273 508.187 283.527 503.082C287.785 493.441 287.358 483.362 285.116 473.496C282.507 462.066 275.283 456.914 263.623 456.914C248.311 456.914 232.986 456.914 217.673 456.914C210.426 456.914 208.054 458.963 206.879 466.212C206.263 470.002 206.144 470.073 202.633 469.125C201.826 466.46 201.174 463.902 200.285 461.415C199.431 459.034 197.77 457.222 195.125 457.139C189.835 456.985 184.545 457.092 179.053 457.092C179.053 463.002 179.005 468.711 179.112 474.42C179.124 475.071 179.919 475.77 180.453 476.35C182.457 478.577 184.948 480.507 186.454 483.03C189.633 488.348 189.42 494.448 188.898 500.334C188.328 506.777 186.407 512.735 180.002 516.063C178.436 516.88 178.863 519.344 180.239 520.587C182.386 522.53 184.675 524.52 186.146 526.948C189.408 532.325 189.491 538.484 188.91 544.489C188.281 550.92 186.419 556.925 179.883 560.099C179.515 560.277 179.112 560.833 179.112 561.224C179.065 567.3 179.077 573.388 179.077 579.606C184.426 579.606 189.372 579.879 194.271 579.452C196.003 579.298 198.221 577.794 199.098 576.266C200.783 573.353 201.649 569.989 202.965 566.53H205.812H205.788Z" fill="black"/>
<path d="M423.904 523.856V512.948C430.819 510.982 433.69 506.694 434.129 499.173C434.603 490.823 435.054 482.402 436.572 474.206C438.185 465.501 442.289 457.766 451.505 454.782C455.657 453.443 460.211 452.875 464.6 452.804C479.427 452.567 494.253 452.673 509.068 452.756C512.021 452.768 515.01 453.041 517.904 453.597C529.588 455.812 534.913 464.233 537.048 474.774C538.602 482.449 538.745 490.42 539.575 498.249C539.836 500.677 540.014 503.176 540.737 505.486C542.374 510.685 543.94 511.858 549.491 512.794V523.809C543.714 523.572 541.259 527.374 540.631 531.803C539.86 537.18 539.717 542.795 540.37 548.172C540.927 552.803 543.287 556.924 549.313 556.51V583.585C542.042 583.585 534.925 583.917 527.88 583.384C525.757 583.218 523.728 580.731 521.831 579.108C520.977 578.374 520.55 577.154 519.826 575.993C519.055 577.178 518.557 578.421 517.655 579.203C515.841 580.79 513.883 583.218 511.843 583.372C504.703 583.881 497.503 583.573 490.161 583.573V556.498C495.795 556.913 497.978 553.253 499.342 548.871C501.287 542.676 500.836 536.6 497.859 530.785C496.341 527.824 494.028 526.142 490.517 526.308C487.86 526.438 485.179 526.402 482.511 526.308C479.142 526.189 476.865 527.788 475.394 530.666C472.156 536.979 471.812 543.493 474.303 550.126C475.762 553.999 478.051 556.901 482.985 556.439V583.704C481.562 583.763 480.126 583.87 478.691 583.881C475.038 583.905 471.361 583.645 467.72 583.941C461.208 584.462 456.25 582.484 453.569 575.697C452.739 577.071 452.193 578.054 451.565 578.978C449.702 581.702 447.318 583.739 443.843 583.775C437.331 583.858 430.807 583.799 424.035 583.799V556.51C429.752 556.877 431.982 552.957 433.144 548.527C434.734 542.439 434.805 536.245 432.432 530.228C430.95 526.474 428.708 523.69 423.892 523.892L423.904 523.856ZM545.268 579.464C545.268 573.423 545.316 567.525 545.197 561.638C545.185 561.022 544.189 560.43 543.643 559.838C541.674 557.718 539.172 555.894 537.808 553.442C534.332 547.189 534.842 540.224 535.827 533.497C536.633 527.942 538.733 522.837 544.462 520.184C545.992 519.474 545.624 516.773 543.928 515.956C540.714 514.393 538.46 511.894 537.464 508.601C536.444 505.249 535.827 501.743 535.412 498.261C534.498 490.645 534.38 482.888 532.897 475.39C531.189 466.792 526.978 459.579 517.3 457.743C514.31 457.174 511.215 456.949 508.166 456.937C493.945 456.854 479.711 456.854 465.49 456.937C462.441 456.949 459.346 457.162 456.357 457.695C446.796 459.389 442.325 466.27 440.735 474.881C439.264 482.888 438.956 491.107 438.28 499.244C437.699 506.232 435.825 512.403 429.099 516.027C427.439 516.927 427.498 519.628 429.23 520.445C432.871 522.174 435.018 525.147 436.382 528.748C439.051 535.818 439.229 543.103 436.94 550.185C435.955 553.217 434.081 556.771 431.543 558.298C427.961 560.454 427.866 563.012 427.984 566.293C428.103 569.846 427.996 573.399 428.02 576.953C428.02 577.805 428.162 578.646 428.245 579.689C433.049 579.689 437.592 579.606 442.123 579.724C445.16 579.807 447.389 578.552 448.54 575.887C449.809 572.949 450.663 569.823 451.754 566.625H455.787C455.906 567.797 455.894 568.792 456.119 569.728C457.021 573.601 457.898 578.386 462.121 579.168C467.506 580.162 473.223 579.404 479.035 579.404C479.035 573.743 478.976 568.342 479.071 562.929C479.094 561.248 478.501 560.478 477.043 559.53C475.038 558.239 472.998 556.498 471.883 554.461C467.055 545.649 467.399 536.671 472.168 527.93C474.255 524.117 477.671 522.115 482.143 522.139C485.108 522.15 488.073 522.162 491.039 522.139C495.783 522.091 499.093 524.389 501.346 528.392C504.537 534.042 505.355 540.142 504.276 546.419C503.28 552.199 501.228 557.457 495.297 560.17C494.692 560.442 494.289 561.757 494.265 562.61C494.17 567.442 494.277 572.274 494.182 577.107C494.146 578.978 494.68 579.783 496.673 579.724C500.623 579.606 504.572 579.618 508.522 579.712C511.298 579.783 513.433 578.646 514.595 576.278C516.09 573.234 517.216 570.012 518.592 566.625H521.226C522.554 570.095 523.491 573.328 525.021 576.242C525.757 577.628 527.559 579.25 528.971 579.345C534.249 579.712 539.575 579.487 545.268 579.487V579.464Z" fill="black"/>
<path d="M545.138 367.124C537.642 371.578 529.611 376.209 521.747 381.1C519.47 382.522 517.845 382.593 515.971 380.094C517.738 378.495 519.399 376.505 521.487 375.178C540.975 362.79 561.506 352.592 583.888 346.563C586.984 345.734 590.59 346.018 593.804 346.622C597.825 347.38 598.727 350.353 596.556 353.764C593.306 358.869 587.174 361.842 582.857 360.302C581.67 359.876 580.544 359.201 579.476 358.502C575.396 355.813 571.007 355.245 566.452 356.808C559.502 359.201 554.425 363.879 551.068 370.358C549.218 373.923 549.277 377.677 551.234 381.16C553.109 384.5 555.338 387.65 557.474 390.836C559.229 393.454 561.269 395.894 562.894 398.582C567.733 406.6 566.796 413.778 559.846 420.091C557.248 422.46 554.295 424.627 551.151 426.167C535.163 434.019 518.486 436.258 501.145 431.343C498.986 430.727 496.91 429.708 494.953 428.583C486.994 424.035 484.907 416.893 489.011 408.721C494.087 398.618 503.481 393.465 514.726 394.626C515.022 394.662 515.319 394.65 515.615 394.709C518.818 395.455 521.866 396.734 522.898 400.063C523.966 403.486 521.593 405.854 519.221 407.88C516.315 410.355 513.089 411.658 509.127 410.391C507.075 409.739 504.869 409.573 502.722 409.254C498.666 408.638 495.748 410.473 494.028 414.678C492.118 419.345 492.581 421.429 496.447 424.082C504.205 429.4 512.804 429.483 521.51 427.505C535.317 424.367 543.821 413.47 543.869 399.34C543.892 392.032 543.75 384.736 543.928 377.441C544.011 374.029 544.711 370.63 545.138 367.124Z" fill="black"/>
<path d="M400.573 402.135C389.032 415.72 375.463 426.024 358.549 431.603C352.559 433.581 346.391 434.552 340.164 433.498C326.002 431.105 317.817 416.49 323.024 402.23C324.804 397.35 327.615 392.482 331.09 388.621C346.96 371.021 366.045 358.573 389.91 354.735C394.536 353.989 399.375 353.942 404.048 354.321C411.426 354.913 414.32 359.532 412.351 366.721C410.762 372.525 406.943 376.741 402.198 380.152C390.396 388.645 376.922 392.908 362.748 395.218C358.667 395.881 354.48 395.905 350.376 396.391C349.333 396.509 348.028 397.042 347.423 397.824C343.675 402.656 340.081 407.607 336.475 412.546C335.894 413.339 335.455 414.24 335.052 415.128C331.493 422.862 335.064 428.902 343.627 429.625C350.543 430.205 356.936 428.429 362.997 425.254C370.493 421.322 377.029 416.111 383.102 410.26C386.446 407.038 389.922 403.959 393.362 400.844C396.422 398.061 398.533 398.416 400.585 402.147L400.573 402.135ZM352.239 392.127C353.188 392.21 353.567 392.293 353.935 392.257C372.343 390.646 387.882 382.734 401.261 370.357C403.171 368.593 404.404 365.833 405.294 363.298C406.433 360.041 405.057 358.265 401.617 357.732C396.612 356.962 392.306 358.964 388.214 361.403C376.02 368.676 365.215 377.665 355.619 388.112C354.563 389.26 353.603 390.504 352.227 392.15L352.239 392.127Z" fill="black"/>
<path d="M487.48 402.23C474.03 417.591 458.361 429.566 437.628 433.367C434.105 434.007 430.297 433.912 426.727 433.379C412.387 431.247 405.294 415.459 409.611 403.272C411.343 398.357 413.905 393.358 417.309 389.474C433.156 371.388 452.442 358.738 476.615 354.782C481.514 353.977 486.65 354.06 491.632 354.38C497.74 354.771 500.682 359.011 499.626 365.051C498.606 370.914 495.19 375.32 490.683 378.909C484.136 384.132 476.698 387.756 468.799 390.457C458.741 393.903 448.433 395.952 437.794 396.367C436.453 396.414 434.745 397.279 433.915 398.333C430.404 402.715 427.047 407.24 423.869 411.871C422.564 413.777 421.579 416.028 420.927 418.255C419.539 423.075 421.52 426.782 426.276 428.571C431.199 430.418 436.204 429.933 441.127 428.594C450.604 426.024 458.42 420.552 465.644 414.156C470.673 409.703 475.548 405.096 480.518 400.571C483.329 398.013 485.559 398.499 487.445 402.194L487.48 402.23ZM438.932 392.34C440.901 392.221 442.052 392.162 443.191 392.079C453.771 391.309 463.295 387.235 472.262 382.012C477.754 378.814 482.914 374.917 487.729 370.76C489.876 368.912 491.217 365.797 492.189 363.002C493.292 359.828 491.952 358.241 488.572 357.72C483.578 356.938 479.261 358.94 475.168 361.368C463.556 368.249 453.249 376.777 443.962 386.536C442.408 388.171 440.996 389.947 438.932 392.34Z" fill="black"/>
<path d="M661.164 402.124C648.461 416.692 633.848 428.192 614.728 432.8C608.204 434.375 601.562 434.707 595.263 431.805C585.063 427.115 579.642 414.915 583.366 403.616C585.015 398.594 587.66 393.49 591.112 389.522C606.923 371.424 626.221 358.775 650.347 354.748C655.34 353.919 660.571 354.085 665.66 354.404C671.045 354.736 673.868 358.585 673.346 363.962C672.753 370.181 669.301 374.812 664.675 378.578C655.874 385.755 645.626 390.209 634.69 392.732C627.134 394.473 619.33 395.065 611.656 396.344C610.268 396.569 608.607 397.28 607.777 398.322C604.266 402.704 600.897 407.217 597.73 411.86C596.378 413.849 595.37 416.194 594.73 418.528C593.484 423.076 595.418 426.676 599.854 428.453C604.847 430.455 609.959 429.993 614.977 428.607C624.822 425.871 632.946 420.21 640.336 413.364C645.104 408.934 649.861 404.481 654.712 400.134C656.989 398.097 659.243 398.796 661.176 402.112L661.164 402.124ZM613.031 391.393C613.233 391.677 613.423 391.95 613.624 392.234C620.409 392.187 626.885 390.706 633.172 388.172C642.376 384.453 651.177 379.964 658.638 373.367C661.496 370.844 663.916 367.468 665.553 364.022C667.38 360.196 665.672 358.04 661.437 357.626C656.669 357.152 652.387 358.905 648.651 361.499C641.451 366.509 634.31 371.649 627.573 377.24C622.39 381.551 617.847 386.644 613.031 391.393Z" fill="black"/>
<path d="M554.805 523.809V512.593C560.225 512.865 562.432 509.229 563.594 504.953C565.254 498.878 565.326 492.659 563.392 486.607C562.123 482.639 560.036 479.359 554.9 479.69V452.899C561.981 452.899 568.967 452.674 575.93 452.982C580.081 453.171 582.465 456.286 584.232 460.183C584.992 459.093 585.549 458.241 586.142 457.423C588.028 454.841 590.46 452.84 593.721 452.828C610.41 452.804 627.111 452.662 643.8 453.112C658.08 453.503 664.758 461.569 667.498 474.822C669.088 482.485 669.076 490.48 669.942 498.297C670.25 501.104 670.701 503.959 671.626 506.612C672.931 510.307 675.445 512.853 680 512.486V523.691C673.334 524.686 670.167 529.376 669.847 537.714C669.586 544.501 669.171 551.311 668.186 558.015C667.558 562.231 666.122 566.436 664.391 570.356C660.453 579.204 653.028 583.373 643.645 583.574C627.55 583.906 611.442 583.763 595.346 583.882C589.772 583.929 586.806 580.495 584.375 575.804C583.651 576.989 583.07 577.984 582.441 578.931C580.532 581.809 577.993 583.704 574.423 583.764C568.493 583.846 562.574 583.894 556.643 583.764C555.991 583.752 554.805 582.591 554.805 581.951C554.674 573.578 554.722 565.204 554.722 556.889C561.447 555.137 564.4 551.773 564.495 544.82C564.555 540.142 564.187 535.381 563.238 530.809C562.396 526.758 559.929 523.596 554.84 523.797L554.805 523.809ZM558.909 456.938C558.909 462.99 558.861 468.711 558.968 474.42C558.98 475.071 559.846 475.746 560.391 476.35C562.384 478.577 564.863 480.519 566.346 483.042C569.821 488.976 569.169 495.703 568.516 502.123C567.935 507.796 565.765 513.019 560.154 515.957C558.233 516.963 558.612 519.143 560.249 520.635C562.526 522.696 564.875 524.911 566.369 527.528C569.714 533.379 569.216 540 568.528 546.336C567.911 551.998 565.919 557.292 560.095 560.076C559.454 560.383 558.956 561.627 558.944 562.456C558.838 567.383 558.968 572.322 558.861 577.249C558.814 579.286 559.692 579.748 561.518 579.701C565.266 579.606 569.026 579.583 572.774 579.701C576.048 579.796 578.361 578.398 579.571 575.485C580.769 572.618 581.623 569.61 582.643 566.625H586.166C586.534 568.378 586.735 569.942 587.186 571.446C589.107 577.96 591.456 579.689 598.193 579.689C611.43 579.689 624.667 579.725 637.904 579.665C640.763 579.665 643.657 579.583 646.456 579.133C656.882 577.439 661.674 570.084 663.406 560.68C664.77 553.253 665.114 545.626 665.66 538.069C666.182 530.679 667.759 524.022 675.113 520.268C676.679 519.474 676.086 517.07 674.639 515.85C672.361 513.931 669.645 511.977 668.471 509.419C666.881 505.948 666.265 501.945 665.778 498.096C664.83 490.587 664.758 482.924 663.382 475.497C661.746 466.721 657.499 459.484 647.643 457.708C644.547 457.151 641.356 456.962 638.213 456.938C624.478 456.855 610.742 457.044 597.019 456.831C592.346 456.76 589.523 458.726 587.886 462.789C587.269 464.329 586.771 465.975 586.581 467.609C586.403 469.185 585.679 469.457 584.292 469.575C581.825 469.765 581.967 468.071 581.742 466.52C580.864 460.479 578.468 457.234 574.186 457.021C569.275 456.772 564.341 456.962 558.932 456.962L558.909 456.938Z" fill="black"/>
<path d="M157.774 517.188C164.286 521.511 168.33 527.469 169.054 534.777C170.015 544.56 170.809 554.568 168.058 564.174C166.788 568.58 164.215 572.831 161.38 576.515C157.406 581.679 151.784 584.012 145.035 583.941C128.726 583.764 112.417 583.752 96.1074 583.953C90.6275 584.024 86.7844 582.034 84.2461 577.297C84.0208 576.882 83.7242 576.491 83.3447 575.923C82.5856 577.155 81.9925 578.256 81.2808 579.275C79.5728 581.715 77.3666 583.61 74.2708 583.669C67.5811 583.787 60.8795 583.704 54.0119 583.704V556.546C60.1204 556.937 62.0419 552.602 63.062 547.947C64.3193 542.227 64.4142 536.364 62.5638 530.691C61.2591 526.664 59.2782 523.17 54.0119 523.489V512.593C58.9105 512.877 61.1167 509.738 62.4215 505.759C64.4735 499.493 64.4616 493.109 62.5638 486.844C61.3421 482.817 59.2427 479.335 54 479.714V452.887C61.0337 452.887 67.9369 452.686 74.8165 452.958C79.0746 453.124 81.4943 456.275 83.404 460.124C84.1987 458.963 84.768 458.075 85.4085 457.234C87.5673 454.415 90.3428 452.745 93.9961 452.745C110.602 452.745 127.207 452.627 143.813 452.792C153.278 452.887 161.107 459.354 164.725 469.718C165.685 472.477 166.444 475.438 166.587 478.34C166.907 485.138 167.049 491.961 166.8 498.759C166.539 505.96 163.598 512.107 157.786 517.212L157.774 517.188ZM85.2662 566.542C85.5153 567.893 85.6932 569.148 85.9779 570.392C87.5317 577.332 90.414 579.665 97.3884 579.665C113.294 579.665 129.2 579.559 145.106 579.725C150.598 579.784 155.141 577.924 158.284 573.696C160.715 570.439 162.969 566.732 164.048 562.883C166.551 553.94 165.958 544.595 164.879 535.558C164.001 528.239 160.466 521.808 152.069 519.948C151.499 519.818 150.764 518.716 150.799 518.088C150.847 517.176 151.286 515.791 151.95 515.495C159.434 512.178 162.127 505.783 162.578 498.368C162.969 491.795 162.72 485.15 162.388 478.565C162.246 475.77 161.546 472.856 160.443 470.274C156.908 461.983 151.381 456.535 140.729 456.796C125.725 457.175 110.697 456.973 95.6803 456.843C91.7068 456.808 88.9788 458.335 87.4842 461.877C86.4642 464.281 85.7999 466.839 84.9104 469.516C83.7124 469.457 82.4907 469.398 81.696 469.362C80.7945 466.366 80.3675 463.653 79.1458 461.368C78.2681 459.721 76.4296 457.613 74.8639 457.483C69.3366 457.009 63.7381 457.293 58.021 457.293C58.021 462.67 58.0803 467.988 57.9854 473.306C57.9616 474.976 58.5784 475.746 59.9662 476.741C61.9707 478.186 63.8211 480.14 65.1021 482.26C68.4826 487.863 68.3758 494.199 67.8302 500.394C67.2609 506.825 65.4342 512.818 58.9343 516.087C57.416 516.857 57.8549 518.87 59.1834 520.102C61.4489 522.187 63.9278 524.283 65.4342 526.877C68.5893 532.301 68.3521 538.508 67.8421 544.489C67.2964 550.908 65.6596 557.008 58.958 560.099C58.531 560.301 58.0803 560.976 58.0684 561.438C58.0091 567.419 58.0328 573.412 58.0328 579.523C63.5364 579.523 68.6723 579.76 73.7608 579.381C75.2909 579.263 77.2717 577.747 78.0427 576.325C79.644 573.353 80.581 570.024 81.8976 566.542H85.2543H85.2662Z" fill="black"/>
<path d="M237.529 513.754C237.232 513.754 236.936 513.73 236.639 513.754C226.237 514.737 222.631 510.236 220.354 500.654C218.824 494.223 219.369 487.732 222.833 481.775C225.193 477.736 228.419 475.284 233.377 475.557C236.331 475.723 239.296 475.687 242.25 475.557C246.816 475.379 250.09 477.523 252.189 481.289C257.207 490.267 256.993 499.387 252.023 508.294C249.971 511.965 246.698 514.014 242.261 513.754C240.684 513.659 239.106 513.742 237.529 513.742V513.754ZM237.73 509.573C239.213 509.573 240.696 509.466 242.167 509.596C245.108 509.857 247.172 508.495 248.489 506.091C252.545 498.641 252.735 491.072 248.702 483.551C247.291 480.922 245.061 479.572 241.917 479.749C239.071 479.903 236.2 479.903 233.342 479.749C230.175 479.584 228.123 481.052 226.593 483.622C223.533 488.751 223.295 494.329 224.446 499.92C226.071 507.808 228.526 509.573 236.556 509.573C236.948 509.573 237.339 509.573 237.742 509.573H237.73Z" fill="black"/>
<path d="M486.52 513.754C474.813 513.754 470.21 509.715 468.775 498.013C468.075 492.304 468.835 486.809 471.788 481.751C474.089 477.807 477.303 475.426 482.107 475.58C485.167 475.687 488.228 475.687 491.288 475.58C495.736 475.415 498.95 477.523 501.026 481.159C506.209 490.22 505.972 499.434 500.824 508.412C498.796 511.953 495.57 513.955 491.252 513.765C489.675 513.694 488.097 513.765 486.52 513.765V513.754ZM486.401 509.573C487.884 509.573 489.366 509.466 490.837 509.596C493.874 509.857 496.044 508.471 497.408 505.96C501.417 498.605 501.69 491.132 497.657 483.682C496.246 481.064 494.099 479.595 490.932 479.749C488.073 479.892 485.203 479.892 482.344 479.749C478.917 479.572 476.782 481.277 475.24 484.073C472.63 488.775 472.298 493.808 473.128 498.996C474.421 507.014 477.434 509.573 485.5 509.573C485.796 509.573 486.093 509.573 486.389 509.573H486.401Z" fill="black"/>
<path d="M617.539 560.442C617.337 560.442 617.147 560.442 616.946 560.442C605.488 560.442 599.818 554.863 599.533 543.327C599.403 537.879 599.189 532.312 602.119 527.504C603.732 524.851 606.235 522.648 608.619 520.563C610.137 519.237 610.671 516.939 608.927 516.122C602.938 513.303 600.696 507.997 599.901 502.086C598.988 495.312 598.94 488.49 602.451 482.2C604.847 477.913 608.192 475.307 613.399 475.568C616.353 475.71 619.33 475.674 622.283 475.568C626.624 475.437 629.839 477.475 631.689 481.111C636.73 491.071 636.79 501.222 631.571 511.123C630.551 513.066 628.321 514.452 626.458 515.849C624.833 517.069 624.43 519.462 626.138 520.279C630.776 522.494 632.935 526.521 634.073 531.116C635.734 537.808 635.959 544.595 633.551 551.192C630.977 558.239 627.645 560.43 620.196 560.442C619.306 560.442 618.416 560.442 617.527 560.442H617.539ZM614.04 523.773C610.647 523.773 608.002 524.922 606.543 527.871C602.57 535.866 602.463 543.979 606.271 552.044C607.646 554.958 610.102 556.415 613.458 556.273C616.021 556.166 618.594 556.119 621.156 556.273C625.071 556.521 627.478 554.638 629.032 551.263C631.618 545.625 631.476 539.703 630.396 533.864C629.447 528.724 627.739 523.749 621.156 523.654V512.485C624.418 512.699 626.874 511.479 628.178 508.755C632.259 500.251 632.259 491.676 628.083 483.195C626.909 480.815 624.833 479.63 622.046 479.737C619.282 479.843 616.507 479.914 613.755 479.725C609.817 479.453 607.469 481.407 605.867 484.723C602.843 491.012 603.08 497.598 604.622 504.076C605.737 508.755 608.062 512.817 614.04 512.568V523.749V523.773Z" fill="black"/>
<path d="M116.805 475.592C117.102 475.592 117.398 475.592 117.695 475.592C127.884 475.592 132.177 478.944 134.146 488.999C135.415 495.442 134.739 501.779 131.442 507.618C129.2 511.586 125.998 514.002 121.146 513.777C118.193 513.635 115.216 513.658 112.262 513.777C107.577 513.955 104.232 511.728 102.085 507.867C97.8035 500.156 97.4477 492.091 100.745 483.954C103.046 478.292 107.055 475 113.543 475.592C114.623 475.687 115.714 475.604 116.805 475.604V475.592ZM116.497 509.572C118.074 509.572 119.664 509.466 121.229 509.596C124.052 509.833 125.926 508.447 127.385 506.268C131.501 500.133 131.513 489.248 127.445 483.172C125.986 480.993 124.1 479.654 121.312 479.761C118.359 479.868 115.382 479.891 112.428 479.761C109.012 479.607 106.901 481.289 105.324 484.096C102.489 489.118 102.311 494.519 103.414 499.896C104.991 507.63 107.696 509.584 115.619 509.584C115.916 509.584 116.212 509.584 116.509 509.584L116.497 509.572Z" fill="black"/>
<path d="M116.841 522.802C117.042 522.802 117.232 522.813 117.434 522.802C128.026 521.854 131.988 526.236 134.229 536.789C135.475 542.64 134.751 548.539 131.727 553.975C129.426 558.108 126.104 560.454 121.265 560.454C118.205 560.454 115.145 560.454 112.096 560.454C107.399 560.454 103.971 558.262 101.789 554.224C97.6256 546.513 97.5544 538.601 101.006 530.642C103.307 525.336 107.281 522.446 113.282 522.802C114.457 522.873 115.655 522.802 116.829 522.802H116.841ZM116.497 556.261C117.979 556.261 119.462 556.202 120.933 556.273C124.171 556.45 126.496 554.97 127.907 552.222C131.549 545.056 131.501 537.855 127.694 530.761C126.33 528.214 124.195 526.9 121.182 526.994C118.229 527.089 115.263 527.077 112.31 526.994C109.072 526.923 106.972 528.51 105.407 531.187C102.999 535.285 102.453 539.774 103.034 544.31C104.019 552.056 106.652 557.386 115.619 556.261C115.916 556.225 116.212 556.261 116.509 556.261H116.497Z" fill="black"/>
</g>
<defs>
<clipPath id="clip0_16_844">
<rect width="626" height="434" fill="white" transform="translate(54 150)"/>
</clipPath>
</defs>
</svg>
