<svg width="714" height="714" viewBox="0 0 714 714" fill="none" xmlns="http://www.w3.org/2000/svg">
<mask id="mask0_16_834" style="mask-type:alpha" maskUnits="userSpaceOnUse" x="0" y="0" width="714" height="714">
<rect width="714" height="714" fill="#D9D9D9"/>
</mask>
<g mask="url(#mask0_16_834)">
<path d="M450.143 360.465C452.002 365.688 449.587 369.46 448.086 373.239C446.443 377.304 447.138 379.504 451.564 380.91C463.466 384.641 466.626 394.943 468.681 405.471C470.021 412.331 467.185 414.076 460.502 411.814C458.757 411.22 456.872 411.083 455.093 410.578C449.293 408.855 447.869 410.727 448.368 416.759C449.024 424.617 449.378 432.462 450.7 440.267C451.395 444.437 453.077 447.079 457.23 448.042C458.255 448.294 459.186 448.885 460.177 449.227C466.119 451.208 473.292 456.747 478.013 452.897C483.21 448.685 480.134 440.046 479.458 433.403C478.878 427.408 476.996 421.531 475.567 415.623C474.417 410.771 475.106 408.416 480.992 410.274C489.844 413.087 499.251 412.916 508.374 414.031C514.646 414.778 517.485 412.219 518.265 405.144C521.993 371.297 502.652 349.018 480.633 328.068C466.028 314.174 456.52 298.306 457.339 277.42C457.564 271.628 459.464 266.438 461.864 261.539C465.198 254.718 462.528 251.634 456.173 250.21C448.212 248.449 440.276 246.085 432.2 245.435C424.443 244.839 423.724 242.256 427.177 236.194C428.767 233.433 429.347 230.29 428.768 226.98C427.052 217.259 416.268 211.744 405.041 214.927C399.488 216.491 397.289 225.338 400.748 234.225C402.722 239.321 400.443 241.481 396.088 241.766C388.476 242.311 380.824 242.603 373.227 242.305C367.145 242.037 369.312 238.205 371.018 235.047C377.219 223.708 384.841 213.282 389.974 201.266C400.341 176.968 411.688 153.041 422.351 128.855C426.992 118.317 431.187 107.61 437.959 97.5414C445.748 145.096 459.431 190.809 472.375 237.669C484.412 228.678 482.602 216.069 484.994 205.188C490.698 179.122 490.375 152.198 496.108 126.143C497.427 120.154 494.788 119.052 489.74 120.093C481.253 121.87 473.694 125.322 468.337 132.463C466.989 134.228 465.867 136.112 463.305 135.073C460.714 134.023 461.11 131.455 461.388 129.557C462.624 120.921 464.049 112.324 465.593 103.771C466.776 97.1544 471.37 96.4162 476.958 97.4476C487.542 99.456 497.971 102.323 508.993 101.745C520.951 101.115 531.089 97.0439 538.795 87.7366C545.647 79.43 543.731 73.6422 533.213 70.7417C531.861 70.3651 530.438 70.267 530.392 68.6868C530.35 66.7349 531.675 65.3009 533.026 63.9786C539.688 57.6045 554.294 59.8468 561.739 67.6286C580.657 87.4376 568.782 110.519 551.436 120.52C544.097 124.735 536.208 127.893 527.505 128.092C524.255 128.151 522.467 129.104 521.699 132.923C515.685 162.404 511.203 192.059 510.67 222.226C510.559 228.434 513.089 230.005 518.559 231.433C536.324 236.096 548.736 244.844 549.325 260.761C549.467 264.688 550.807 265.365 554.544 265.185C573.987 264.166 593.467 263.5 612.927 262.793C618.192 262.615 623.485 262.991 628.717 262.631C633.607 262.277 633.875 265.334 632.337 268.046C627.319 276.98 621.879 285.685 616.36 294.328C614.536 297.169 612.471 296.522 611.225 293.536C607.591 284.753 599.3 282.968 591.577 280.312C589.108 279.478 586.956 280.225 586.987 282.92C587.176 297.565 583.595 312.207 586.567 327.397C590.816 325.509 592.884 322.115 595.374 319.22C596.408 318.016 597.306 316.454 599.185 316.962C601.105 317.453 601.288 319.39 601.22 320.825C600.839 328.46 600.358 336.09 599.646 343.701C599.402 346.496 596.66 347.189 594.511 348.107C586.815 351.473 582.736 356.857 582.555 365.756C582.398 373.34 580.452 380.891 579.782 388.483C579.522 391.408 575.93 395.686 581.192 397.307C586.057 398.811 591.213 398.83 594.874 394.103C600.868 386.355 601.168 377.5 595.397 369.606C593.873 367.533 593.544 365.982 594.863 363.934C597.222 360.311 600.459 358.582 604.857 358.721C620.622 359.161 632.335 372.977 631.266 388.877C630.213 404.647 621.538 414.538 608.3 421.409C601.328 425.016 594.368 423.125 587.603 420.629C579.68 417.693 571.84 414.449 563.917 411.513C561.66 410.657 558.978 410.116 558.04 413.395C557.186 416.366 559.17 417.764 561.661 418.539C579.304 423.971 588.67 438.154 597.078 452.891C610.038 475.604 613.165 501.316 617.331 526.436C620.272 544.128 621.503 562.565 614.07 579.483C605.775 598.317 599.431 618.365 580.474 630.915C552.972 649.159 516.588 646.745 493.408 623.214C482.121 611.768 478.415 592.155 489.064 579.208C490.565 577.399 492.901 575.091 488.733 573.987C481.045 571.955 475.742 563.185 466.244 566.106C464.859 566.532 463.229 565.099 462.64 563.517C461.815 561.302 460.7 560.302 458.693 562.19C455.41 565.294 451.657 563.633 448.105 563.238C430.512 561.256 429.068 559.689 428.146 542.05C427.944 538.372 427.139 534.67 427.268 531.016C427.536 524.663 424.556 522.311 418.544 521.322C405.971 519.273 402.815 521.236 401.407 534.358C400.864 539.553 400.949 544.885 401.109 550.109C401.241 554.507 398.155 556.734 395.384 555.174C390.657 552.499 385.704 552.659 380.848 551.939C375.642 551.155 373.906 549.104 376.334 544.045C382.184 531.928 387.79 519.65 393.67 507.544C403.128 488.064 412.704 468.629 422.28 449.195C424.283 445.164 424.122 441.468 422.721 437.099C419.133 425.955 417.791 414.441 421.762 403.071C423.174 398.987 422.108 397.768 418.179 396.482C404.834 392.17 390.919 393.926 377.334 392.309C370.741 391.508 371.337 390.205 373.656 385.343C382.911 366.127 386.786 345.244 390.864 324.54C393.242 312.533 399.074 301.631 400.545 289.417C401.691 280.034 404.13 270.733 400.226 261.407C398.173 256.518 402.094 256.748 404.823 256.627C416.13 256.192 427.505 255.579 438.824 255.828C443.977 255.947 448.609 253.763 453.68 253.918C457.033 254.035 459.004 254.748 457.474 258.516C455.294 263.906 453.096 269.255 450.858 274.623C450.156 276.293 449.495 278.217 447.153 278.212C444.722 278.174 444.577 276.047 443.676 274.482C442.634 272.66 441.305 270.968 439.827 269.49C435.086 264.703 433.187 265.41 430.863 271.9C427.742 280.67 426.913 289.935 424.479 298.864C423.937 300.832 422.463 303.195 424.268 304.797C426.043 306.387 428.288 304.588 430.242 304.004C431.726 303.582 433.205 302.817 434.421 301.852C439.383 297.992 440.754 301.365 440.472 305.334C439.702 315.607 437.674 325.437 426.397 329.824C421.934 331.563 419.137 334.817 417.771 339.496C414.583 350.415 411.335 361.31 407.88 372.128C405.97 378.062 409.143 378.653 413.407 377.62C426.534 374.444 429.647 378.24 450.248 360.369L450.143 360.465ZM496.088 570.626C504.364 566.359 511.782 564.891 519.391 564.175C520.875 564.024 522.654 562.558 523.711 564.25C524.871 566.117 523.42 567.706 522.01 569.006C520.861 570.065 519.593 571.079 518.541 572.243C513.282 577.96 511.33 588.396 514.497 593.571C521.641 605.282 539.227 610.148 551.547 604.084C566.872 596.544 574.038 582.48 578.713 567.641C585.411 546.3 589.777 524.21 589.947 501.719C590.144 476.826 584.2 454.157 562.825 438.139C556.581 433.462 553.737 433.437 550.166 440.168C540.652 458.097 525.78 469.817 506.886 476.107C501.046 478.071 498.874 481.29 498.134 486.648C495.744 504.153 492.655 521.53 489.625 538.929C488.525 545.237 488.721 552.785 494.102 557.407C498.464 561.133 499.158 564.589 496.129 570.608L496.088 570.626ZM509.039 439.964C505.375 447.747 505.124 456.382 502.604 464.462C502.097 466.07 501.353 468.302 503.11 469.58C504.838 470.846 506.634 469.693 508.196 468.62C514.937 464.009 522.024 459.833 528.325 454.681C545.962 440.238 556.747 422.451 554.863 398.569C552.549 369.191 533.381 349.322 515.158 329.471C504.386 317.744 491.525 307.671 478.268 298.466C474.504 295.851 471.813 292.554 470.256 288.058C464.205 270.24 473.848 248.656 491.681 242.746C501.973 239.344 517.887 242.796 522.078 257.905C525.271 269.374 521.663 277.993 513.071 285.335C511.52 286.649 508.145 287.577 511.09 290.562C515.716 295.203 527.108 296.159 531.85 292.25C539.901 285.621 545.351 262.821 539.291 252.643C526.586 231.317 495.248 230.918 481.304 243.058C459.815 261.748 456.076 285.23 472.175 309.609C481.996 324.474 496.274 335.288 507.679 348.75C526.781 371.21 531 399.509 515.44 425.678C512.721 430.252 509.731 434.553 508.938 439.96L509.039 439.964ZM586.088 570.947C585.243 573.174 584.458 575.424 583.554 577.629C576.004 596.202 565.358 611.291 542.885 612.147C530.24 612.618 519.904 607.714 511.999 597.652C506.178 590.247 507.538 582.984 511.603 575.489C512.471 573.916 513.437 571.905 511.699 570.396C510.398 569.258 508.667 570.062 507.167 570.614C496.64 574.368 487.614 589.664 489.429 600.645C491.819 615.309 506.467 630.611 520.994 633.333C525.374 634.144 529.898 634.127 534.361 634.63C553.608 636.729 570.645 630.586 582.775 616.331C599.277 596.906 609.231 573.878 610.28 547.813C611.586 515.426 606.971 484.055 591.773 455.058C584.868 441.91 575.813 430.222 561.037 424.756C559.433 424.148 557.408 422.769 556.28 425.297C555.14 427.854 556.795 428.957 558.973 430.02C578.064 439.16 588.483 456.121 592.987 475.153C600.645 507.371 595.588 539.526 586.076 570.977L586.088 570.947ZM596.355 326.488C592.316 329.169 588.899 331.101 585.846 333.51C580.675 337.562 578.834 335.607 578.914 329.931C579.145 313.373 579.435 296.838 579.755 280.314C579.86 274.749 583.183 272.884 588.198 273.902C594.451 275.151 600.556 277.058 605.956 280.464C616.16 286.881 616.339 286.948 621.606 275.833C621.947 275.113 622.169 274.348 622.51 273.628C623.994 270.25 623.247 269.084 619.254 269.132C602.379 269.291 585.564 267.23 568.652 268.292C556.891 269.031 557.468 268.672 558.086 279.946C559.426 304.097 560.373 328.303 557.282 352.404C555.859 363.415 553.892 373.981 555.932 385.624C558.42 399.849 561.914 410.346 578.06 412.289C581.862 412.745 585.411 415.211 589.127 416.519C591.069 417.221 593.43 418.252 595.208 417.771C614.098 412.567 630.223 399.692 621.694 375.329C619.217 368.241 611.235 363.042 603.787 363.513C602.184 363.619 600.392 363.687 599.78 365.391C599.274 366.727 600.366 367.787 601.363 368.742C604.346 371.538 606.453 374.85 606.594 379.048C607.152 396.482 592.461 407.456 575.877 402.188C572.364 401.06 570.878 399.783 571.615 395.51C573.647 383.338 575.112 371.053 576.465 358.793C577.674 348.076 578.627 346.637 589.587 344.609C593.679 343.851 596.097 342.492 596.423 337.69C596.65 334.311 597.045 331.03 596.355 326.488ZM435.315 113.388C429.874 124.335 426.266 133.94 422.17 143.223C408.597 173.915 395.53 204.799 377.642 233.346C376.976 234.385 376.251 236.657 376.573 236.881C380.582 239.658 385.06 238.061 389.374 237.794C393.275 237.54 392.108 235.331 391.578 232.787C388.493 218.165 395.756 210.116 410.634 211.375C411.945 211.498 413.284 211.462 414.6 211.485C431.447 211.758 434.418 214.854 434.363 232.022C434.37 233.35 434.636 234.708 434.423 235.986C433.928 239.263 435.195 240.491 438.49 241.298C446.186 243.129 453.736 245.617 461.345 247.856C463.848 248.601 465.796 251.616 468.987 248.308C472.073 245.096 470.253 242.639 469.092 239.787C458.639 213.778 450.385 187.074 445.03 159.533C442.191 144.801 440.427 129.831 435.274 113.406L435.315 113.388ZM543.035 66.788C549.106 73.9812 549.357 81.6517 544.196 88.1873C536.67 97.7332 526.882 102.854 514.714 104.933C503.386 106.856 492.822 102.375 481.677 103.279C470.049 104.204 467.64 106.076 468.093 117.696C468.263 122.176 469.716 123.27 474.007 121.092C480.092 118.032 485.817 113.952 492.957 113.398C498.907 112.936 501.526 114.541 500.613 121.43C497.435 144.955 494.045 168.502 492.28 192.155C491.096 207.909 487.575 222.574 479.591 237.721C486.448 234.954 491.894 232.058 497.691 230.656C503.154 229.329 503.768 226.097 504.063 221.555C504.898 208.42 505.604 195.27 507.19 182.215C509.577 162.568 512.863 143.059 515.339 123.446C515.863 119.195 517.946 119.883 520.686 120.004C529.707 120.401 538.564 119.886 546.936 115.994C557.94 110.892 565.926 98.4297 564.52 88.2494C562.658 74.7029 557.661 69.5137 543.035 66.788ZM512.825 251.577C512.49 254.881 511.931 256.266 512.287 257.386C514.691 265.023 512.215 266.089 505.774 262.56C499.863 259.334 493.08 259.038 486.691 257.431C481.079 256.017 478.549 258.659 477.384 264.06C474.268 278.641 479.288 289.682 490.68 298.79C508.166 312.79 524.946 327.577 537.988 346.041C541.628 351.225 545.681 356.125 550.521 362.444C554.618 331.386 556.069 302.111 550.828 272.031C547.145 274.576 547.86 277.53 547.178 279.955C544.545 289.589 535.852 298.183 527.401 299.327C517.303 300.696 505.931 295.298 500.917 286.841C499.59 284.606 498.271 281.456 502.524 282.423C511.795 284.579 515.887 278.895 518.84 272.269C522.071 265.002 519.082 258.637 512.825 251.577ZM384.964 537.228C384.874 537.466 384.443 538.424 384.131 539.426C383.167 542.865 379.439 546.785 386.321 548.613C391.692 550.038 393.404 548.479 394.666 542.91C396.506 534.742 398.094 526.342 401.824 518.652C403.098 516.01 404.262 512.579 408.014 514.511C413.832 517.532 420.268 517.492 426.404 518.867C430.598 519.812 432.016 521.538 432.28 525.681C432.715 532.776 433.564 539.857 434.635 546.887C435.629 553.583 444.614 560.08 451.16 559.301C453.291 559.055 454.448 557.796 455.165 555.995C456.775 551.748 458.382 547.33 456.662 542.907C449.943 525.685 449.585 507.274 447.107 489.349C445.461 477.651 445.489 466.825 434.802 458.188C427.181 452.038 427.446 450.711 423.219 459.979C417.755 471.971 413.26 484.365 407.418 496.281C400.665 510.06 391.635 522.501 384.994 537.24L384.964 537.228ZM433.339 309.9C428.453 311.41 424.342 313.113 420.049 313.864C417.032 314.384 413.468 314.29 414.762 308.904C418.672 292.586 421.119 275.917 426.859 259.342C421.773 259.588 417.091 260.021 412.418 259.982C408.046 259.955 406.22 261.097 407.63 265.98C409.697 273.252 408.669 280.981 407.049 287.942C399.724 319.27 391.76 350.492 383.469 381.59C381.807 387.856 384.363 389.267 389.202 389.675C395.234 390.161 401.617 389.184 407.303 390.762C418.415 393.888 427.977 393.844 435.706 383.764C437.203 381.784 439.394 380.576 438.954 376.809C428.564 381.634 418.073 382.514 407.61 382.964C399.393 383.313 397.142 380.829 399.6 373.269C403.018 362.641 404.931 351.681 407.059 340.87C408.578 333.191 412.082 329.594 419.304 327.746C427.584 325.62 433.238 320.562 433.417 309.964L433.339 309.9ZM485.712 418.789C488.016 426.423 486.065 433.36 485.839 440.408C484.533 478.978 480.257 517.135 470.821 554.661C470.398 556.403 469.515 559.092 471.595 559.608C477.266 561.045 480.946 565.497 485.881 567.98C487.763 568.931 489.904 569.913 491.415 567.36C492.721 565.172 490.989 564.006 489.621 562.774C484.908 558.541 483.254 553.226 484.239 547.044C486.061 535.607 488.024 524.156 489.817 512.709C494.763 481.294 499.14 449.765 510.116 419.379C502.746 419.914 494.646 420.851 485.653 418.767L485.712 418.789ZM461.926 469.524C464.896 470.65 467.776 472.014 470.829 472.832C474.617 473.86 478.805 475.448 479.991 469.273C481.108 463.548 479.157 461.348 473.084 460.88C449.851 459.172 440.434 446.736 433.427 426.959C427.9 411.343 441.048 398.256 456.923 402.168C460.058 402.949 460.868 402.067 460.261 399.188C458.478 390.63 448.22 385.519 440.384 389.614C429.262 395.384 423.115 405.147 424.421 417.294C426.988 441.434 440.082 458.865 461.937 469.495L461.926 469.524ZM464.814 547.119C465.791 546.334 466.383 546.117 466.511 545.69C473.534 526 476.203 505.34 479.359 484.829C479.713 482.552 478.966 480.4 476.346 480.053C470.445 479.31 465.61 475.846 460.193 473.827C453.659 471.35 452.648 473.209 453.384 479.602C456.021 502.036 460.339 524.157 464.796 547.078L464.814 547.119ZM494.924 255.695C497.049 256.365 498.763 257.218 500.565 257.392C502.888 257.627 506.517 260.6 507.269 257.182C507.965 253.913 507.946 248.946 502.683 247.596C501.16 247.223 499.558 247.057 498.02 246.814C493.595 246.121 488.31 246.53 487.424 251.017C486.735 254.628 492.708 253.836 494.924 255.695ZM431.408 259.98C436.458 262.608 439.627 264.285 442.837 265.943C444.391 266.77 446.141 268.249 447.546 266.064C448.47 264.614 449.202 262.683 449.118 261.021C448.997 258.563 446.647 258.759 444.885 258.839C441.025 259.074 437.179 259.45 431.419 259.95L431.408 259.98Z" fill="black"/>
<path d="M350.732 162.309C356.927 160.752 359.77 155.851 364.115 153.082C365.941 151.94 367.998 150.546 369.994 151.642C371.805 152.6 371.164 155.007 371.173 156.777C371.173 160.717 370.497 164.741 370.993 168.632C372.646 182.371 362.611 187.603 353.22 192.84C347.748 195.895 345.132 199.659 344.653 205.762C344.197 211.534 343.251 217.256 341.996 222.894C340.972 227.568 343.488 227.74 346.753 227.551C357.302 226.965 364.535 220.161 372.123 214.036C374.129 212.419 375.866 209.001 378.425 210.854C380.935 212.655 378.604 215.848 377.488 218.074C373.814 225.344 369.945 232.505 366.045 239.655C364.252 242.95 360.874 241.737 358.163 241.898C343.966 242.698 329.516 241.568 315.663 244.775C304.672 247.334 293.783 245.414 282.99 246.553C270.431 247.872 258.03 250.475 245.536 252.43C242.965 252.848 239.598 253.576 238.048 251.392C236.014 248.514 239.603 247.021 241.053 244.989C247.588 235.815 248.687 224.852 250.595 214.264C254.1 194.803 257.186 175.285 260.371 155.772C260.5 155.073 260.15 154.295 259.881 152.495C253.64 157.398 250.164 163.791 245.505 169.091C242.059 172.982 239.348 179.597 235.322 180.449C228.841 181.864 231.141 172.749 227.361 169.55C225.048 167.586 223.684 164.555 221.479 161.409C218.192 164.613 217.635 168.682 216.986 172.274C213.259 193.485 207.323 213.892 196.478 232.642C194.099 236.768 197.066 237.723 199.701 238.926C217.275 247.049 222.519 261.979 222.194 279.86C222.049 287.142 214.127 296.3 206.845 298.125C200.914 299.614 187.635 294.138 184.502 288.874C182.403 285.36 181.324 282.471 186.359 280.032C193.107 276.748 195.484 271.195 193.459 263.633C191.042 254.598 183.694 251.846 176.484 257.605C169.657 263.068 162.505 267.864 153.853 270.257C147.255 272.069 147.312 279.089 146.938 283.838C144.984 307.182 139.206 330.129 139.456 353.663C139.612 368.125 138.879 382.692 150.31 394.295C158.159 402.264 173.405 401.115 178.942 391.528C182.683 385.065 183.575 377.964 182.366 370.848C181.58 366.202 179.812 361.727 174.162 360.23C170.612 359.292 169.986 356.371 171.871 353.281C178.517 342.383 200.809 342.987 207.818 354.069C213.892 363.675 213.535 373.934 210.027 383.814C195.582 424.604 152.705 426.149 128.053 405.424C110.158 390.351 101.225 369.741 97.8125 346.843C94.3747 323.833 96.6966 301.58 108.47 281.008C111.867 275.095 115.769 269.372 120.056 264.068C122.999 260.428 122.464 258.255 119.971 254.524C107.358 235.645 102.263 214.588 104.746 192.091C106.309 178.11 113.648 166.727 124.924 158.4C138.22 148.596 156.008 157.14 157.538 174.161C158.128 180.669 157.345 187.302 157.017 193.904C156.936 195.639 156.876 197.859 154.688 198.524C152.663 199.115 150.835 197.844 149.889 196.398C144.953 188.719 140.786 192.812 136.848 197.195C127.162 207.96 127.265 228.925 136.638 237.981C139.85 241.067 142.183 241.544 146.133 238.829C153.602 233.644 161.841 230.28 171.389 232.065C175.64 232.861 178.008 230.736 179.896 226.831C189.582 206.657 193.121 185.137 194.368 163.122C195.103 149.983 196.38 136.845 194.554 123.652C193.42 115.443 190.559 108.923 182.373 105.786C180.858 105.212 178.994 104.573 179.473 102.682C179.929 100.851 181.831 101.3 183.482 101.247C194.566 100.863 205.605 100.326 216.686 99.7715C221.431 99.5321 225.011 100.482 227.95 105.095C232.589 112.391 238.488 118.873 243.549 125.955C246.63 130.282 248.969 132.086 252.803 126.542C255.793 122.241 260.281 118.915 263.074 114.504C271.999 100.461 285.915 101.117 299.869 100.87C333.768 100.338 367.706 99.6163 401.52 96.9796C403.416 96.8154 405.354 96.6328 406.485 98.4882C407.494 100.128 406.314 101.447 405.466 102.79C402.471 107.463 399.673 112.245 396.6 116.855C391.54 124.38 389.929 124.687 383.154 118.721C378.622 114.727 373.294 112.741 367.683 111.055C363.869 109.915 362.107 110.98 360.936 115.054C356.528 130.265 354.293 145.927 350.821 162.343L350.732 162.309ZM192.796 106.069C200.772 119.079 199.277 132.61 199.916 146.067C201.028 169.656 196.525 192.644 189.944 214.573C184.604 232.421 176.099 250.733 156.292 258.986C154.758 259.627 153.934 261.353 154.411 262.961C155.083 265.22 157.016 264.424 158.271 263.711C165.911 259.508 173.763 255.283 179.031 248.108C193.986 227.655 201.673 204.243 206.376 179.564C208.142 170.246 210.695 161.091 211.934 151.642C212.213 149.472 212.792 146.6 215.856 146.403C218.296 146.241 219.348 148.304 220.479 150.16C223.495 155.107 226.861 159.848 229.672 164.889C234.16 172.942 233.707 172.703 239.936 165.859C249.196 155.679 255.813 143.513 265.129 133.457C266.621 131.849 268.126 127.969 271.025 129.374C273.982 130.801 272.122 134.274 271.556 136.573C262.924 171.618 263.145 208.491 249.698 242.526C248.824 244.742 248.955 246.457 251.816 245.809C261.922 243.525 272.137 241.759 282.229 238.078C276.481 229.852 276.682 229.86 278.389 215.052C282.666 177.608 293.705 141.947 306.639 105.951C299.984 105.942 293.21 106.159 286.415 105.893C280.051 105.654 275.525 108.185 271.574 113.141C266.043 120.114 259.77 126.534 253.995 133.346C250.604 137.36 247.713 138.268 244.139 133.448C239.917 127.738 235.491 122.119 230.718 116.879C226.956 112.735 224.427 106.681 217.607 106.303C209.723 105.862 201.827 104.737 192.796 106.069ZM172.993 237.87C162.015 234.66 153.168 237.658 144.89 244.439C133.264 253.959 125.32 266.131 117.705 278.87C107.057 296.744 104.759 316.424 106.019 336.129C107.322 356.257 115.232 375.086 124.536 393.016C136.255 415.599 170.457 418.748 184.03 408.573C196.264 399.42 202.957 387.588 205.741 372.27C208.028 359.787 194.175 351.886 181.909 355.388C183.507 357.625 185.154 359.642 186.521 361.859C190.454 368.241 193.896 374.574 191.376 382.654C187.194 396.015 176.274 404.75 164.344 403.692C149.548 402.397 135.191 388.835 133.482 375.245C130.312 350.094 133.579 325.346 137.241 300.544C139.2 287.223 140.877 273.931 145.737 261.201C148.698 253.39 152.778 247.735 161.67 246.86C167.2 246.341 170.417 242.872 173.004 237.841L172.993 237.87ZM367.772 225.601C366.285 224.595 365.24 225.83 364.145 226.298C355.913 229.733 347.968 234.024 338.354 231.874C334.539 231.006 332.851 229.992 333.599 225.69C335.103 216.884 336.529 208.015 337.164 199.084C337.426 195.345 338.474 193.568 341.718 191.91C348.258 188.547 354.603 184.804 360.796 180.834C366.761 177.015 366.578 169.166 364.685 165.289C362.743 161.36 359.341 168.631 355.81 169.432C354.583 169.714 353.545 170.748 352.298 171.26C349.651 172.328 346.77 174.463 344.077 172.695C341.169 170.777 342.71 167.251 343.229 164.628C347.32 144.337 351.672 124.077 356.014 103.574C348.686 103.819 341.116 104.075 333.534 104.36C330.233 104.467 328.498 106.085 329.549 109.405C331.924 117.031 330.461 124.562 329.62 132.157C327.274 152.771 325.527 173.509 320.045 193.613C315.554 210.118 310.357 226.424 302.273 241.567C304.913 243.383 307.411 242.529 309.58 242.095C324.346 239.166 339.322 237.744 354.257 237.326C362.984 237.067 366.537 233.251 367.813 225.582L367.772 225.601ZM308.071 207.995C319.029 185.721 320.852 158.421 324.009 131.457C324.864 124.274 325.972 116.779 322.846 109.615C320.913 105.214 318.879 104.307 315.838 108.657C312.347 113.652 309.202 118.812 306.97 124.522C299.724 143.006 294.6 161.988 290.908 181.582C288.44 194.812 285.438 207.839 284.508 221.312C284.222 225.382 284.77 229.224 286.229 232.902C287.507 236.071 290.244 237.991 293.518 238.316C296.993 238.648 297.544 235.222 298.46 232.987C301.471 225.671 304.167 218.2 308.041 207.983L308.071 207.995ZM111.293 186.828C103.535 210.247 111.041 230.859 123.179 250.543C125.027 253.554 127.785 255.686 130.742 252.187C132.758 249.826 137.521 247.658 133.292 243.133C125.633 234.93 123.815 224.763 123.077 213.987C122.113 199.864 133.889 184.66 147.654 183.118C149.997 182.852 153.096 183.279 152.636 179.742C151.794 173.003 149.441 166.845 143.048 163.368C136.941 160.034 131.113 159.727 125.75 165.269C119.642 171.615 114.027 178.183 111.304 186.798L111.293 186.828ZM212.743 283.105C218.734 262.107 213.77 251.903 194.002 244.102C191.31 243.048 189.525 243.187 188.129 245.884C186.807 248.475 188.111 249.784 190.155 250.933C191.747 251.842 193.398 252.774 194.84 253.898C204.06 261.028 205.708 275.139 197.233 283.068C191.026 288.867 195.665 289.981 199.672 291.33C205.75 293.396 210.785 289.972 212.754 283.075L212.743 283.105ZM369.206 105.247C374.136 107.116 379.612 108.173 383.859 111.039C390.835 115.756 393.421 110.996 396.704 106.636C398.755 103.914 397.639 102.914 394.781 102.747C386.206 102.248 377.662 102.474 369.206 105.247Z" fill="black"/>
<path d="M312.75 542.773C315.664 531.683 317.964 522.839 320.293 514.007C325.182 495.377 329.963 476.672 330.751 457.302C331.185 446.121 330.448 435.073 324.17 425.288C319.963 418.733 321.025 416.112 328.915 415.639C337.319 415.156 345.763 414.926 354.187 414.927C371.336 414.94 388.316 411.458 405.502 412.81C408.007 413.013 411.33 412.132 412.356 415.341C413.164 417.957 411.605 420.457 409.843 422.507C405.21 427.918 400.403 433.161 395.877 438.647C392.419 442.839 389.21 443.151 385.373 439.115C380.562 434.064 374.439 431.844 367.551 431.645C364.871 431.546 361.878 431.736 361.326 435.162C359.589 445.747 355.088 455.828 354.872 467.33C361.178 466.018 364.086 460.768 368.583 457.955C372.626 455.445 374.275 455.934 374.302 460.7C374.327 467.266 374.18 473.835 374.205 480.4C374.232 484.181 371.96 486.411 368.859 487.511C351.67 493.427 345.634 507.377 342.416 523.481C341.606 527.59 339.089 532.886 342.128 535.533C345.04 538.064 350.225 535.409 354.141 534.041C364.459 530.479 371.093 522.837 376.019 513.427C376.914 511.694 377.155 508.728 380.206 510.089C382.942 511.295 381.777 513.741 380.978 515.579C377.144 524.35 374.149 533.235 373.961 543.049C373.85 548.001 370.905 550.213 365.074 550.72C346.19 552.325 327.02 553.788 312.15 568.192C310.318 569.978 307.155 573.84 303.636 569.143C302.264 567.298 300.658 569.203 299.522 569.961C280.676 582.485 267.499 566.619 264.837 552.226C262.627 540.314 260.421 528.301 260.193 516.088C260.166 514.277 260.125 512.325 259.54 510.643C258.337 507.096 258.677 501.45 253.815 501.373C248.793 501.269 246.255 506.082 245.446 510.633C242.365 528.08 242.76 545.317 250.08 561.849C250.972 563.886 253.602 565.732 250.942 568.087C248.742 570.038 246.561 568.532 244.334 567.688C240.135 566.13 235.914 564.36 231.541 563.619C221.108 561.838 215.01 565.199 210.548 574.819C209.611 576.842 208.876 579.587 206.618 579.002C199.06 576.986 199.481 582.955 198.203 586.954C195.774 594.526 193.39 601.978 189.071 608.8C180.786 621.964 163.798 629.587 148.376 627.884C134.645 626.381 123.179 621.321 113.254 611.75C108.853 607.499 104.131 603.467 96.5465 604.566C90.5803 605.43 88.0723 599.859 86.9306 594.806C85.4158 588.05 83.8857 581.423 79.303 575.949C78.0369 574.45 77.1826 573.209 79.6125 571.548C91.9596 563.083 98.103 550.194 102.999 536.832C111.92 512.494 115.16 487.193 113.052 461.392C112.019 448.703 107.724 436.646 103.883 424.558C102.964 421.695 100.836 417.899 104.055 415.859C106.686 414.207 109.138 417.684 111.68 418.953C124.843 425.54 138.944 426.606 153.247 425.438C162.707 424.676 171.948 421.895 181.557 422.175C197.382 422.638 205.53 431.162 205.784 447.156C206.049 462.407 201.479 475.179 188.45 484.099C185.058 486.414 182.812 488.756 185.834 493.061C197.581 509.743 199.101 529.478 202.088 548.75C202.655 552.362 202.816 556.058 203.224 560.357C207.442 556.759 206.333 551.888 206.812 548.028C210.428 517.433 218.146 487.307 218.02 456.279C217.967 445.219 213.928 435.263 207.711 426.214C206.676 424.734 204.703 423.307 206.003 421.49C206.728 420.474 208.876 419.828 210.224 420.033C232.707 423.631 252.31 412.244 273.3 408.04C298.811 402.935 322.996 422.023 313.669 449.671C309.168 462.979 302.867 474.042 292.058 482.751C289.232 485.009 287.384 487.196 291.118 491.057C296.24 496.362 296.013 503.681 295.884 510.562C295.767 517.413 295.147 524.244 294.758 531.094C294.633 532.949 294.319 535.208 296.071 536.144C298.227 537.267 299.15 534.831 300.396 533.605C303.329 530.709 304.362 523.593 307.437 524.351C311.906 525.468 308.881 532.372 311.175 536.265C311.929 537.502 311.942 539.171 312.835 542.907L312.75 542.773ZM109.976 423.539C115.648 438.326 116.755 453.148 117.641 468.193C119.816 505.195 111.645 539.294 90.6705 570.068C87.0041 575.438 89.4548 593.793 94.4919 596.994C95.1003 597.36 96.0363 597.579 96.6876 597.385C103.785 595.15 107.755 599.372 112.152 603.994C116.103 608.176 120.744 611.974 125.727 614.78C134.661 619.797 144.095 625.378 154.846 621.302C167.507 616.488 178.98 610.239 185.994 597.204C190.309 589.227 192.398 581.119 193.682 572.535C197.103 549.442 195.932 526.816 186.072 505.244C183.793 500.236 180.508 495.729 178.612 490.425C177.586 487.488 177.243 485.524 180.19 483.754C191.431 477.043 193.867 465.33 195.986 454.006C199.083 437.414 188.072 425.868 171.401 428.176C150.646 431.042 130.055 433.834 109.935 423.557L109.976 423.539ZM243.214 559.62C242.697 553.547 238.406 549.543 238.411 543.974C238.452 531.59 238.352 519.221 239.958 506.922C240.89 499.802 245.818 495.318 252.711 495.145C259.734 494.989 262.323 499.809 263.73 505.505C266.489 516.776 268.377 528.192 269.495 539.758C270.283 548.074 271.513 556.387 276.968 563.415C282.441 570.483 289.909 571.752 296.904 566.115C305.904 558.861 306.728 548.982 306.118 537.779C301.426 540.925 298.381 546.089 292.4 542.871C286.93 539.914 287.001 534.71 287.324 529.737C287.71 523.701 288.888 517.727 289.385 511.665C290.112 502.939 285.462 494.416 279.453 492.885C277.562 492.406 274.553 493.711 274.043 490.936C273.54 488.231 275.151 485.683 277.713 484.48C289.153 479.034 295.781 469.08 300.812 458.317C305.316 448.678 306.157 438.127 303.351 427.518C299.911 414.46 277.416 410.178 265.754 414.147C250.779 419.239 236.327 426.09 219.931 425.343C218.797 425.287 217.04 425.98 216.572 426.856C215.606 428.596 217.293 429.881 218.626 430.488C223.08 432.448 223.342 436.148 223.565 440.309C224.914 466.23 221.148 491.842 218.457 517.488C217.061 530.58 214.263 543.515 212.116 556.527C211.706 558.953 211.243 563.397 214.719 561.488C223.961 556.465 233.141 559.13 243.173 559.639L243.214 559.62ZM370.974 530.945C360.565 539.228 348.989 542.075 336.168 541.664C330.897 541.5 329.234 540.869 331.17 535.047C334.229 525.812 336.658 516.27 338.484 506.704C339.912 499.263 343.521 494.312 350.306 491.11C354.6 489.103 358.847 486.773 362.552 483.897C366.874 480.474 368.153 474.233 366.248 470.386C364.772 467.38 361.13 473.133 357.882 473.906C354.786 474.635 352.288 476.745 349.83 478.836C348.29 480.121 346.469 482.148 344.265 480.973C341.56 479.505 342.741 476.658 343.31 474.53C347.157 460.261 350.377 445.855 353.566 431.438C354.946 425.201 359.167 421.503 366.445 423.99C373.693 426.466 381.331 428.003 387.484 432.917C391.106 435.819 393.501 435.504 395.435 431.21C396.297 429.295 397.408 427.44 398.652 425.771C401.831 421.508 400.895 420.303 395.573 419.916C384.668 419.111 374.007 421.694 363.171 421.424C354.796 421.204 346.43 420.512 338.008 421.939C333.615 422.686 331.611 422.775 333.387 428.306C335.368 434.459 338.722 440.486 337.768 447.394C333.807 475.853 330.076 504.332 320.768 531.749C318.277 539.127 316.807 546.859 314.405 556.241C331.18 548.639 347.266 546.619 363.63 545.927C366.077 545.835 367.454 544.353 368.079 542.076C369.104 538.388 370.08 534.648 371.075 530.949L370.974 530.945Z" fill="black"/>
<path d="M258.89 345.334C255.343 360.872 252.308 373.717 249.581 386.644C249.048 389.126 248.813 392.434 249.988 394.442C254.322 401.826 249.554 402.396 244.234 403.436C232.37 405.699 220.846 409.754 208.694 410.446C206.508 410.569 203.554 411.997 202.255 409.33C201.226 407.207 203.589 405.454 204.848 403.927C214.996 391.673 215.788 376.143 219.509 361.758C225.398 339.057 231.049 316.265 233.539 292.853C234.327 285.577 235.261 278.186 230.649 271.444C228.419 268.187 231.077 267.36 233.673 267.053C247.282 265.385 261.029 265.501 274.607 263.107C278.759 262.371 279.123 265.533 276.72 268.018C264.652 280.496 264.991 296.896 262.31 312.389C262.018 314.146 262.169 315.359 263.943 316.235C268.341 318.344 280.589 313.815 281.643 309.154C284.486 296.814 288.702 284.62 287.967 271.773C287.617 265.797 290.653 264.061 295.231 263.724C300.474 263.334 305.734 263.528 310.978 263.852C314.227 264.064 315.476 265.965 314.182 269.38C305.965 291.233 301.76 314.063 297.295 336.862C294.821 349.478 290.123 361.692 291.544 374.97C292.173 380.745 296.33 386.805 293.921 391.905C291.337 397.379 283.689 393.359 278.842 396.107C274.007 398.826 268.865 400.919 263.363 401.992C262.076 402.251 260.667 402.295 259.701 401.079C258.735 399.864 258.814 398.399 259.836 397.496C269.485 388.891 267.394 376.039 271.176 365.346C273.655 358.269 273.557 350.283 274.908 342.778C275.469 339.594 274.943 338.205 271.472 338.758C265.554 339.673 258.297 338.655 258.849 345.352L258.89 345.334ZM266.884 268.875C257.38 268.228 249.206 269.986 240.965 270.667C237.878 270.923 237.918 273.418 238.78 275.444C243.067 285.731 239.647 295.916 237.649 305.757C231.353 337.238 228.055 369.414 217.134 399.922C216.56 401.437 215.186 404.075 218.417 403.975C226.117 403.735 233.775 401.815 240.586 398.724C244.682 396.88 239.097 391.808 239.918 387.941C240.413 385.649 239.623 383.073 240.237 380.826C244.265 366.081 248.481 351.375 252.668 336.657C253.361 334.202 254.966 332.568 257.674 332.236C264.19 331.445 270.688 330.342 277.252 329.875C280.911 329.632 284.268 330.633 283.305 335.771C280.117 352.872 278.077 370.17 273.462 387.002C272.942 388.911 270.685 391.282 272.512 392.824C275.447 395.296 278.366 391.986 281.368 391.596C283.581 391.314 285.506 390.447 285.111 387.546C282.635 369.078 287.123 351.417 291.35 333.725C296.023 314.232 300.476 294.689 305.179 275.207C305.869 272.31 307.769 269.361 303.001 268.674C299.553 268.183 295.688 267.804 295.962 273.173C296.453 282.633 292.414 291.225 290.66 300.241C287.096 318.694 286.876 318.645 267.952 320.982C266.387 321.17 264.798 321.417 263.233 321.605C254.704 322.686 252.805 321.422 254.133 312.992C256.458 298.077 256.28 282.418 266.872 268.905L266.884 268.875Z" fill="black"/>
<path d="M387.513 282.574C383.913 275.672 380.07 270.308 372.385 269.162C368.428 268.579 366.492 269.475 365.637 273.431C363.007 285.478 360.287 297.491 359 309.844C362.303 310.451 364.484 308.73 366.534 307.265C368.357 305.952 370.154 304.527 372.209 305.917C374.323 307.33 373.064 309.843 372.964 311.809C372.362 322.179 365.992 328.766 357.526 333.268C353.026 335.638 350.725 338.842 349.615 343.381C347.37 352.619 345.184 361.879 342.939 371.117C342.109 374.471 343.107 376.14 346.81 376.049C352.606 375.903 357.758 374.051 361.921 370.058C366.816 365.392 371.469 360.464 376.88 354.974C376.882 367.781 373.12 378.958 368.605 389.883C367.367 392.879 364.354 393.299 361.191 393.221C347.481 392.915 333.829 392.189 320.117 393.682C314.977 394.248 310.508 396.358 305.642 397.367C303.249 397.852 300.082 398.86 298.625 395.624C297.279 392.634 300.216 391.607 301.857 390.055C307.319 384.788 310.896 378.399 312.733 371.045C318.991 345.936 325.409 320.854 331.359 295.662C332.559 290.614 332.259 285.133 332.111 279.88C331.959 274.455 330.829 269.373 323.932 268.389C322.383 268.175 319.812 267.608 320.561 265.004C321.1 263.136 323.179 263.925 324.641 263.562C344.206 258.818 364.386 258.452 384.161 255.214C386.985 254.756 389.972 255.209 392.865 255.015C396 254.811 396.78 256.873 396.13 259.038C393.827 266.726 392.671 274.882 387.591 282.637L387.513 282.574ZM369.736 369.964C360.803 376.055 352.101 380.908 341.523 382.198C336.037 382.869 334.001 382.505 334.315 376.034C335.027 361.969 342.458 349.805 344.708 336.255C345.031 334.237 346.73 333.251 348.535 332.611C354.491 330.52 357.949 325.072 363.058 321.811C364.936 320.621 366.63 317.764 365.117 315.662C363.623 313.601 361.266 315.696 359.415 316.456C357.237 317.362 355.177 318.585 352.932 319.399C348.83 320.901 346.866 320.258 348.301 315.129C351.599 303.471 354.37 291.682 356.566 279.707C359.293 264.809 368.434 260.768 381.751 268.024C383.216 268.818 384.519 271.384 386.437 269.461C388.639 267.239 388.32 263.959 388.062 261.143C387.822 258.64 385.266 259.2 383.518 259.421C369.37 260.987 355.207 262.683 341.048 264.279C335.161 264.934 332.834 266.77 337.473 272.367C339.638 274.988 339.505 278.743 339.898 282.187C340.939 291.447 337.916 300.05 335.468 308.566C327.663 335.874 325.169 364.855 310.59 390.139C310.835 390.299 311.286 390.81 311.71 390.767C327.473 389.779 343.063 386.11 359.005 388.146C361.205 388.436 363.111 387.528 363.994 385.111C365.86 380.01 367.833 374.983 369.759 369.905L369.736 369.964Z" fill="black"/>
<path d="M404.553 193.006C409.672 182.819 413.997 174.098 418.441 165.422C418.857 164.595 419.842 163.61 420.649 163.542C422.416 163.362 422.54 165.006 422.639 166.267C423.521 176.486 424.573 186.702 425.142 196.939C425.379 201.513 421.365 201.078 418.825 200.251C413.746 198.597 407.014 203.45 403.503 196.582C402.916 195.442 404.497 193.154 404.524 192.995L404.553 193.006ZM419.08 180.136C415.381 184.338 414.708 188.262 413.197 191.799C412.099 194.338 412.886 195.757 415.747 196.095C418.449 196.405 420.74 196.187 420.488 192.729C420.201 188.917 419.672 185.116 419.11 180.147L419.08 180.136Z" fill="black"/>
<path d="M417.679 509.448C408.214 506.098 408.136 506.035 412.105 497.179C416.517 487.335 421.165 477.582 425.714 467.825C426.485 466.147 427.271 463.897 429.37 464.183C431.57 464.474 431.242 466.863 431.499 468.693C433.315 480.659 431.721 492.658 431.637 504.617C431.566 512.064 427.885 513.08 417.679 509.448ZM424.135 481.935C421.624 488.558 419.77 493.359 417.964 498.211C416.834 501.281 418.93 502.653 421.28 503.443C424.414 504.495 424.932 502.143 424.892 499.92C424.75 494.737 427.293 489.553 424.135 481.935Z" fill="black"/>
<path d="M160.666 580.5C155.137 595.355 147.741 600.975 137.384 599.8C126.908 598.58 115.789 585.975 116.734 575.598C118.335 558.473 123.487 542.015 127.361 525.344C129.759 515.077 133.46 505.135 133.235 494.349C133.161 491.229 134.281 487.917 138.174 488.849C144.265 490.344 150.689 490.333 156.346 493.871C168.279 501.282 170.649 513.22 168.9 525.092C166.472 541.53 165.546 558.13 162.35 574.447C161.782 577.289 160.776 580.032 160.625 580.519L160.666 580.5ZM156.867 576.274C160.041 568.442 159.145 559.066 160.029 549.924C161.088 538.708 162.523 527.396 160.289 516.087C158.741 508.163 155.611 501.813 146.772 499.413C141.721 498.041 140.199 499.367 139.424 504.1C137.38 516.302 135.254 528.54 132.641 540.628C130.078 552.497 125.137 563.736 123.328 575.856C122.817 579.264 121.076 582.782 125.087 585.016C130.582 588.084 135.373 595.607 142.447 591.461C148.069 588.191 154.258 584.321 156.897 576.286L156.867 576.274Z" fill="black"/>
<path d="M157.473 436.958C169.832 441.813 172.47 456.537 163.287 465.081C157.885 470.099 151.059 472.335 144.205 474.016C140.875 474.826 136.232 474.798 137.998 468.436C140.56 459.081 144.043 449.803 140.607 439.872C139.816 437.567 141.325 436.543 143.564 436.373C148.517 435.941 153.522 434.747 157.473 436.958ZM157.42 443.46C152.364 441.475 149.108 442.177 148.295 447.1C147.371 452.763 146.826 458.501 146.192 464.205C146.008 465.766 145.984 467.353 148.123 467.893C151.975 468.843 161.7 461.83 163.053 456.738C164.726 450.442 161.689 446.267 157.42 443.46Z" fill="black"/>
<path d="M283.175 462.364C280.245 467.673 277.512 473.091 274.337 478.239C271.461 482.958 253.921 488.096 248.142 486.584C244.929 485.74 245.696 483.449 245.792 481.583C246.528 463.96 249.067 446.511 251.387 429.013C251.723 426.423 253.244 425.369 255.428 424.804C263.901 422.615 271.978 422.009 279.264 428.507C285.638 434.185 287.494 440.936 285.755 449.108C284.813 453.473 285.157 458.121 283.175 462.364ZM276.463 461.789C277.694 457.738 279.362 453.784 280.083 449.642C282.27 437.154 273.497 427.68 261.743 429.203C258.601 429.608 256.977 430.487 256.868 433.91C256.441 448.118 253.409 462.119 253.922 476.445C254.125 482.093 256.117 481.319 259.586 480.053C268.342 476.85 274.663 471.467 276.434 461.778L276.463 461.789Z" fill="black"/>
</g>
</svg>
